<?xml version="1.0" encoding="utf-8"?>
<!-- Generator: Adobe Illustrator 24.0.2, SVG Export Plug-In . SVG Version: 6.00 Build 0)  -->
<svg version="1.1" id="Layer_1" xmlns="http://www.w3.org/2000/svg" xmlns:xlink="http://www.w3.org/1999/xlink" x="0px" y="0px"
	 viewBox="0 0 758.82 95.42" style="enable-background:new 0 0 758.82 95.42;" xml:space="preserve">
<style type="text/css">
	.st0{fill:none;stroke:#9CAE86;stroke-miterlimit:10;}
	.st1{fill:none;}
	.st2{font-family:'MyriadPro-Regular';}
	.st3{font-size:12px;}
	.st4{fill:none;stroke:#000000;stroke-miterlimit:10;}
	.st5{fill:none;stroke:#E38666;stroke-miterlimit:10;}
	.st6{font-size:14px;}
	.st7{fill:none;stroke:#006AA8;stroke-miterlimit:10;}
	.st8{fill:none;stroke:#B79460;stroke-miterlimit:10;}
</style>
<rect x="20.99" y="18.87" class="st0" width="117.65" height="52.12"/>
<rect x="34.97" y="33.66" class="st1" width="107.52" height="37.34"/>
<text transform="matrix(1 0 0 1 34.9673 42.1776)"><tspan x="0" y="0" class="st2 st3">Symbol Generation</tspan><tspan x="0" y="14.4" class="st2 st3">(BPSK,QPSK..)</tspan></text>
<g>
	<line x1="138.63" y1="44.93" x2="188.24" y2="44.93"/>
	<g>
		<line class="st4" x1="138.63" y1="44.93" x2="182.2" y2="44.93"/>
		<g>
			<path d="M188.24,44.93c-2.84,1.05-6.36,2.85-8.55,4.76l1.72-4.76l-1.72-4.75C181.87,42.08,185.4,43.88,188.24,44.93z"/>
		</g>
	</g>
</g>
<rect x="354.9" y="18.58" class="st5" width="119.61" height="52.12"/>
<rect x="400.49" y="39.42" class="st1" width="83.01" height="39.22"/>
<text transform="matrix(1 0 0 1 400.4904 49.3587)" class="st2 st6">IFFT</text>
<rect x="523.53" y="18.58" class="st7" width="119.61" height="52.12"/>
<rect x="550.65" y="29.98" class="st1" width="77.78" height="37.91"/>
<text transform="matrix(1 0 0 1 550.6534 39.9157)"><tspan x="0" y="0" class="st2 st6">Add Cyclic </tspan><tspan x="0" y="16.8" class="st2 st6">    Prefix </tspan></text>
<g>
	<line x1="305.88" y1="44.93" x2="354.9" y2="44.93"/>
	<g>
		<line class="st4" x1="305.88" y1="44.93" x2="348.87" y2="44.93"/>
		<g>
			<path d="M354.9,44.93c-2.84,1.05-6.36,2.85-8.55,4.76l1.72-4.76l-1.72-4.75C348.54,42.08,352.06,43.88,354.9,44.93z"/>
		</g>
	</g>
</g>
<g>
	<line x1="643.14" y1="44.93" x2="707.84" y2="44.93"/>
	<g>
		<line class="st4" x1="643.14" y1="44.93" x2="701.81" y2="44.93"/>
		<g>
			<path d="M707.84,44.93c-2.84,1.05-6.36,2.85-8.55,4.76l1.72-4.76l-1.72-4.75C701.48,42.08,705,43.88,707.84,44.93z"/>
		</g>
	</g>
</g>
<rect x="655.56" y="25.32" class="st1" width="88.89" height="23.53"/>
<text transform="matrix(1 0 0 1 655.5555 35.264)" class="st2 st6">OFDM signal</text>
<rect x="188.24" y="18.87" class="st8" width="117.65" height="52.12"/>
<rect x="216.34" y="29.94" class="st1" width="99.35" height="40.52"/>
<text transform="matrix(1 0 0 1 216.3399 39.8802)"><tspan x="0" y="0" class="st2 st6">Sub-carrier </tspan><tspan x="0" y="16.8" class="st2 st6"> Mapping</tspan></text>
<g>
	<line x1="474.51" y1="44.93" x2="523.53" y2="44.93"/>
	<g>
		<line class="st4" x1="474.51" y1="44.93" x2="517.49" y2="44.93"/>
		<g>
			<path d="M523.53,44.93c-2.84,1.05-6.36,2.85-8.55,4.76l1.72-4.76l-1.72-4.75C517.17,42.08,520.69,43.88,523.53,44.93z"/>
		</g>
	</g>
</g>
</svg>
