<?xml version="1.0" encoding="utf-8"?>
<!-- Generator: Adobe Illustrator 24.0.2, SVG Export Plug-In . SVG Version: 6.00 Build 0)  -->
<svg version="1.1" id="Layer_1" xmlns="http://www.w3.org/2000/svg" xmlns:xlink="http://www.w3.org/1999/xlink" x="0px" y="0px"
	 viewBox="0 0 713.73 94.12" style="enable-background:new 0 0 713.73 94.12;" xml:space="preserve">
<style type="text/css">
	.st0{fill:#FFFFFF;stroke:#8194B5;stroke-miterlimit:10;}
	.st1{fill:none;}
	.st2{font-family:'MyriadPro-Regular';}
	.st3{font-size:14px;}
	.st4{fill:#FFFFFF;stroke:#E38666;stroke-miterlimit:10;}
	.st5{fill:none;stroke:#000000;stroke-miterlimit:10;}
	.st6{fill:#FFFFFF;stroke:#955F7D;stroke-miterlimit:10;}
	.st7{fill:#FFFFFF;stroke:#006BA9;stroke-miterlimit:10;}
</style>
<rect x="101.39" y="25.16" class="st0" width="98.04" height="43.79"/>
<rect x="113.69" y="33.66" class="st1" width="73.44" height="26.8"/>
<text transform="matrix(1 0 0 1 113.6938 43.6003)"><tspan x="0" y="0" class="st2 st3">Cyclic Prefix </tspan><tspan x="0" y="16.8" class="st2 st3">Removal</tspan></text>
<g>
	<rect x="244.44" y="25.49" class="st4" width="98.04" height="43.79"/>
</g>
<rect x="284.31" y="40.85" class="st1" width="30.07" height="16.67"/>
<text transform="matrix(1 0 0 1 284.3136 50.7895)" class="st2 st3">FFT</text>
<g>
	<line x1="27.45" y1="47.39" x2="98.69" y2="47.39"/>
	<g>
		<line class="st5" x1="27.45" y1="47.39" x2="92.66" y2="47.39"/>
		<g>
			<path d="M98.69,47.39c-2.84,1.05-6.36,2.85-8.55,4.76l1.72-4.76l-1.72-4.75C92.33,44.54,95.85,46.33,98.69,47.39z"/>
		</g>
	</g>
</g>
<g>
	<line x1="199.43" y1="47.06" x2="244.44" y2="47.06"/>
	<g>
		<line class="st5" x1="199.43" y1="47.06" x2="238.41" y2="47.06"/>
		<g>
			<path d="M244.44,47.06c-2.84,1.05-6.36,2.85-8.55,4.76l1.72-4.76l-1.72-4.75C238.08,44.21,241.6,46.01,244.44,47.06z"/>
		</g>
	</g>
</g>
<rect x="34.97" y="31.7" class="st1" width="75.16" height="12.75"/>
<text transform="matrix(1 0 0 1 34.9674 41.6394)" class="st2 st3">rxSig</text>
<g>
	<rect x="392.81" y="24.84" class="st6" width="126.14" height="43.79"/>
	<rect x="415.03" y="33.01" class="st1" width="88.89" height="28.76"/>
	<text transform="matrix(1 0 0 1 415.0324 42.9464)"><tspan x="0" y="0" class="st2 st3">    Channel </tspan><tspan x="0" y="16.8" class="st2 st3">   Estimation</tspan></text>
</g>
<g>
	<line x1="342.48" y1="46.73" x2="392.81" y2="46.73"/>
	<g>
		<line class="st5" x1="342.48" y1="46.73" x2="386.78" y2="46.73"/>
		<g>
			<path d="M392.81,46.73c-2.84,1.05-6.36,2.85-8.55,4.76l1.72-4.76l-1.72-4.75C386.45,43.88,389.97,45.68,392.81,46.73z"/>
		</g>
	</g>
</g>
<g>
	<rect x="571.9" y="24.84" class="st7" width="126.14" height="43.79"/>
	<rect x="607.19" y="31.7" class="st1" width="88.24" height="30.07"/>
	<text transform="matrix(1 0 0 1 607.1895 41.6392)"><tspan x="0" y="0" class="st2 st3">One-Tap </tspan><tspan x="0" y="16.8" class="st2 st3">Equaliser</tspan></text>
</g>
<g>
	<line x1="518.95" y1="46.73" x2="569.28" y2="46.73"/>
	<g>
		<line class="st5" x1="518.95" y1="46.73" x2="563.25" y2="46.73"/>
		<g>
			<path d="M569.28,46.73c-2.84,1.05-6.36,2.85-8.55,4.76l1.72-4.76l-1.72-4.75C562.92,43.88,566.44,45.68,569.28,46.73z"/>
		</g>
	</g>
</g>
</svg>
