<?xml version="1.0" encoding="UTF-8" standalone="no"?><!DOCTYPE svg PUBLIC "-//W3C//DTD SVG 1.1//EN" "http://www.w3.org/Graphics/SVG/1.1/DTD/svg11.dtd"><svg width="100%" height="100%" viewBox="0 0 2326 898" version="1.1" xmlns="http://www.w3.org/2000/svg" xmlns:xlink="http://www.w3.org/1999/xlink" xml:space="preserve" xmlns:serif="http://www.serif.com/" style="fill-rule:evenodd;clip-rule:evenodd;stroke-miterlimit:10;"><rect x="426.935" y="5.234" width="1544.1" height="886.448" style="fill:#fdfbeb;stroke:#1e1c1a;stroke-width:1.04px;"/><rect x="5.234" y="5.403" width="360.554" height="886.473" style="fill:#fcdfea;stroke:#1e1c1a;stroke-width:1.04px;"/><rect x="46.801" y="87.07" width="278.479" height="733.627" style="fill:#f4f3f4;stroke:#1e1c1a;stroke-width:1.04px;"/><path d="M542.816,110.42l1117.12,0" style="fill:none;fill-rule:nonzero;stroke:#1785c8;stroke-width:3.13px;stroke-dasharray:8.42,8.42;"/><path d="M611.682,110.42l124.147,71.677" style="fill:none;fill-rule:nonzero;stroke:#1785c8;stroke-width:3.12px;stroke-dasharray:8.42,8.42;"/><path d="M569.8,126.002l-26.984,-15.579l26.984,-15.584l-0,31.163Z" style="fill:#1785c8;fill-rule:nonzero;"/><path d="M704.672,182.097l31.157,-0.001l-15.576,-26.987l-15.581,26.988Z" style="fill:#1785c8;fill-rule:nonzero;"/><path d="M961.214,110.42l124.147,71.677" style="fill:none;fill-rule:nonzero;stroke:#1785c8;stroke-width:3.12px;stroke-dasharray:8.42,8.42;"/><path d="M1054.2,182.097l31.157,-0.001l-15.576,-26.987l-15.581,26.988Z" style="fill:#1785c8;fill-rule:nonzero;"/><path d="M1310.59,110.42l124.147,71.677" style="fill:none;fill-rule:nonzero;stroke:#1785c8;stroke-width:3.12px;stroke-dasharray:8.42,8.42;"/><path d="M1403.58,182.097l31.158,-0.001l-15.577,-26.987l-15.581,26.988Z" style="fill:#1785c8;fill-rule:nonzero;"/><path d="M325.28,270.622l121.04,-0" style="fill:none;fill-rule:nonzero;stroke:#241f1f;stroke-width:3.13px;"/><path d="M440.785,286.17l26.983,-15.579l-26.983,-15.584l-0,31.163Z" style="fill:#241f1f;fill-rule:nonzero;"/><rect x="1990.8" y="5.403" width="335.129" height="166.189" style="fill:#f4f3f4;"/><text x="2104.68px" y="99.164px" style="font-family:'ArialMT', 'Arial', sans-serif;font-size:29.167px;fill:#1e1c1a;">AXI4-Stream</text><text x="2104.68px" y="50.806px" style="font-family:'ArialMT', 'Arial', sans-serif;font-size:29.167px;fill:#1e1c1a;">AXI4 / <tspan x="2190.61px 2210.06px " y="50.806px 50.806px ">AX</tspan>I4-Lite</text><path d="M2006.7,35.755l73.1,-0" style="fill:none;fill-rule:nonzero;stroke:#1785c8;stroke-width:3.13px;stroke-dasharray:8.33,8.33;"/><path d="M2006.7,87.95l73.1,0" style="fill:none;fill-rule:nonzero;stroke:#83b365;stroke-width:3.13px;"/><text x="2104.68px" y="147.572px" style="font-family:'ArialMT', 'Arial', sans-serif;font-size:29.167px;fill:#1e1c1a;">Interrupt</text><path d="M2006.7,136.358l73.1,-0" style="fill:none;fill-rule:nonzero;stroke:#ea6b66;stroke-width:3.13px;"/><rect x="1685.06" y="606.104" width="207.67" height="116.41" style="fill:#fff;stroke:#1e1c1a;stroke-width:4.17px;"/><text x="113.873px" y="133.97px" style="font-family:'Arial-ItalicMT', 'Arial', sans-serif;font-style:italic;font-size:29.167px;fill:#1e1c1a;">JupyterLab</text><text x="1622.32px" y="42.635px" style="font-family:'Arial-BoldItalicMT', 'Arial', sans-serif;font-weight:700;font-style:italic;font-size:29.167px;fill:#1e1c1a;">Programmable Logic</text><text x="45.364px" y="42.635px" style="font-family:'Arial-BoldItalicMT', 'Arial', sans-serif;font-weight:700;font-style:italic;font-size:29.167px;fill:#1e1c1a;">Processing System</text><path d="M469.298,633.276l-120.96,0" style="fill:none;fill-rule:nonzero;stroke:#241f1f;stroke-width:3.13px;"/><path d="M352.263,617.695l-26.983,15.579l26.983,15.583l0,-31.162Z" style="fill:#241f1f;fill-rule:nonzero;"/><path d="M392.772,669.455l-26.984,15.579l26.984,15.583l-0,-31.162Z" style="fill:#ea6b66;fill-rule:nonzero;stroke:#ea6b66;stroke-width:1px;stroke-linejoin:round;stroke-miterlimit:2;"/><path d="M839.665,241.64l118.6,-0" style="fill:none;fill-rule:nonzero;stroke:#83b365;stroke-width:3.13px;"/><path d="M953.709,257.22l26.983,-15.579l-26.983,-15.584l-0,31.163Z" style="fill:#83b365;fill-rule:nonzero;"/><text x="878.56px" y="218.011px" style="font-family:'ArialMT', 'Arial', sans-serif;font-size:29.167px;fill:#1e1c1a;">uint8</text><path d="M893.643,258.174l33.071,-33.071" style="fill:none;fill-rule:nonzero;stroke:#83b365;stroke-width:4.17px;"/><rect x="70.932" y="236.052" width="229.112" height="69.617" style="fill:#fff;stroke:#1e1c1a;stroke-width:4.17px;"/><text x="143.334px" y="279.157px" style="font-family:'ArialMT', 'Arial', sans-serif;font-size:29.167px;fill:#1e1c1a;">Conﬁg</text><rect x="71.484" y="595.495" width="229.112" height="69.617" style="fill:#fff;stroke:#1e1c1a;stroke-width:4.17px;"/><text x="126.87px" y="638.599px" style="font-family:'ArialMT', 'Arial', sans-serif;font-size:29.167px;fill:#1e1c1a;">Plot BER</text><rect x="631.994" y="182.097" width="207.67" height="116.41" style="fill:#fff;stroke:#1e1c1a;stroke-width:4.17px;"/><rect x="1330.9" y="182.097" width="207.67" height="116.41" style="fill:#fff;stroke:#1e1c1a;stroke-width:4.17px;"/><g transform="matrix(4.16667,0,0,4.16667,909.368,234.272)"><text x="195.322px" y="102.216px" style="font-family:'ArialMT', 'Arial', sans-serif;font-size:7px;fill:#1e1c1a;">Baseband</text><text x="189.489px" y="109.216px" style="font-family:'ArialMT', 'Arial', sans-serif;font-size:7px;fill:#1e1c1a;">Demodulation</text></g><g transform="matrix(4.16667,0,0,4.16667,-143.695,-189.736)"><text x="197.857px" y="98.716px" style="font-family:'ArialMT', 'Arial', sans-serif;font-size:7px;fill:#1e1c1a;">Random</text><text x="198.638px" y="105.716px" style="font-family:'ArialMT', 'Arial', sans-serif;font-size:7px;fill:#1e1c1a;">Number</text><text x="195.327px" y="112.716px" style="font-family:'ArialMT', 'Arial', sans-serif;font-size:7px;fill:#1e1c1a;">Generator</text></g><g transform="matrix(4.16667,0,0,4.16667,555.215,-189.736)"><text x="198.058px" y="102.216px" style="font-family:'ArialMT', 'Arial', sans-serif;font-size:7px;fill:#1e1c1a;">SD-FEC</text><text x="198.05px" y="109.216px" style="font-family:'ArialMT', 'Arial', sans-serif;font-size:7px;fill:#1e1c1a;">Encoder</text></g><rect x="985.34" y="606.104" width="207.67" height="116.41" style="fill:#fff;stroke:#1e1c1a;stroke-width:4.17px;"/><g transform="matrix(4.16667,0,0,4.16667,209.65,234.272)"><text x="198.058px" y="102.216px" style="font-family:'ArialMT', 'Arial', sans-serif;font-size:7px;fill:#1e1c1a;">SD-FEC</text><text x="197.857px" y="109.216px" style="font-family:'ArialMT', 'Arial', sans-serif;font-size:7px;fill:#1e1c1a;">Decoder</text></g><rect x="1335.11" y="606.104" width="207.67" height="116.41" style="fill:#fff;stroke:#1e1c1a;stroke-width:4.17px;"/><g transform="matrix(4.16667,0,0,4.16667,559.417,234.272)"><text x="198.058px" y="102.216px" style="font-family:'ArialMT', 'Arial', sans-serif;font-size:7px;fill:#1e1c1a;">SD-FEC</text><text x="195.914px" y="109.216px" style="font-family:'ArialMT', 'Arial', sans-serif;font-size:7px;fill:#1e1c1a;">Controller</text></g><rect x="981.526" y="182.097" width="207.67" height="116.41" style="fill:#fff;stroke:#1e1c1a;stroke-width:4.17px;"/><g transform="matrix(4.16667,0,0,4.16667,205.837,-189.736)"><text x="198.058px" y="102.216px" style="font-family:'ArialMT', 'Arial', sans-serif;font-size:7px;fill:#1e1c1a;">SD-FEC</text><text x="195.914px" y="109.216px" style="font-family:'ArialMT', 'Arial', sans-serif;font-size:7px;fill:#1e1c1a;">Controller</text></g><path d="M1659.93,110.42l124.147,71.677" style="fill:none;fill-rule:nonzero;stroke:#1785c8;stroke-width:3.12px;stroke-dasharray:8.42,8.42;"/><path d="M1752.92,182.097l31.158,-0.001l-15.577,-26.987l-15.581,26.988Z" style="fill:#1785c8;fill-rule:nonzero;"/><path d="M545.424,796.215l1117.12,-0" style="fill:none;fill-rule:nonzero;stroke:#1785c8;stroke-width:3.13px;stroke-dasharray:8.42,8.42;"/><path d="M614.29,796.215l124.147,-71.676" style="fill:none;fill-rule:nonzero;stroke:#1785c8;stroke-width:3.12px;stroke-dasharray:8.42,8.42;"/><path d="M571.408,780.634l-26.984,15.579l26.984,15.583l-0,-31.162Z" style="fill:#1785c8;fill-rule:nonzero;"/><path d="M708.28,724.539l31.157,-0l-15.576,26.987l-15.581,-26.987Z" style="fill:#1785c8;fill-rule:nonzero;"/><path d="M963.822,796.215l124.147,-71.676" style="fill:none;fill-rule:nonzero;stroke:#1785c8;stroke-width:3.12px;stroke-dasharray:8.42,8.42;"/><path d="M1057.81,724.539l31.158,-0l-15.576,26.987l-15.582,-26.987Z" style="fill:#1785c8;fill-rule:nonzero;"/><path d="M1313.2,796.215l124.147,-71.676" style="fill:none;fill-rule:nonzero;stroke:#1785c8;stroke-width:3.12px;stroke-dasharray:8.42,8.42;"/><path d="M1407.19,724.539l31.158,-0l-15.577,26.987l-15.581,-26.987Z" style="fill:#1785c8;fill-rule:nonzero;"/><path d="M1662.54,796.215l124.147,-71.676" style="fill:none;fill-rule:nonzero;stroke:#1785c8;stroke-width:3.12px;stroke-dasharray:8.42,8.42;"/><path d="M1756.53,724.539l31.158,-0l-15.577,26.987l-15.581,-26.987Z" style="fill:#1785c8;fill-rule:nonzero;"/><rect x="1680.25" y="393.586" width="207.67" height="116.41" style="fill:#fff;stroke:#1e1c1a;stroke-width:4.17px;"/><g transform="matrix(4.16667,0,0,4.16667,904.555,21.7532)"><text x="200.328px" y="102.216px" style="font-family:'ArialMT', 'Arial', sans-serif;font-size:7px;fill:#1e1c1a;">A<tspan x="204.737px 211.344px " y="102.216px 102.216px ">WG</tspan>N</text><text x="198.048px" y="109.216px" style="font-family:'ArialMT', 'Arial', sans-serif;font-size:7px;fill:#1e1c1a;">Channel</text></g><rect x="636.005" y="606.104" width="207.67" height="116.41" style="fill:#fff;stroke:#1e1c1a;stroke-width:4.17px;"/><g transform="matrix(4.16667,0,0,4.16667,-139.685,234.272)"><text x="203.889px" y="102.216px" style="font-family:'ArialMT', 'Arial', sans-serif;font-size:7px;fill:#1e1c1a;">BER</text><text x="193.77px" y="109.216px" style="font-family:'ArialMT', 'Arial', sans-serif;font-size:7px;fill:#1e1c1a;">Calculation</text></g><path d="M1190.13,241.64l118.6,-0" style="fill:none;fill-rule:nonzero;stroke:#83b365;stroke-width:3.13px;"/><path d="M1304.18,257.22l26.984,-15.579l-26.984,-15.584l0,31.163Z" style="fill:#83b365;fill-rule:nonzero;"/><text x="1229.03px" y="218.011px" style="font-family:'ArialMT', 'Arial', sans-serif;font-size:29.167px;fill:#1e1c1a;">uint8</text><path d="M1244.11,258.174l33.07,-33.071" style="fill:none;fill-rule:nonzero;stroke:#83b365;stroke-width:4.17px;"/><path d="M1685.83,664.31l-118.6,0" style="fill:none;fill-rule:nonzero;stroke:#83b365;stroke-width:3.13px;"/><path d="M1571.78,679.891l-26.984,-15.58l26.984,-15.583l-0,31.163Z" style="fill:#83b365;fill-rule:nonzero;"/><text x="1575.59px" y="642.666px" style="font-family:'ArialMT', 'Arial', sans-serif;font-size:29.167px;fill:#1e1c1a;">uint32</text><path d="M1631.85,680.845l-33.07,-33.071" style="fill:none;fill-rule:nonzero;stroke:#83b365;stroke-width:4.17px;"/><path d="M1334.04,666.978l-118.6,-0" style="fill:none;fill-rule:nonzero;stroke:#83b365;stroke-width:3.13px;"/><path d="M1219.99,682.558l-26.983,-15.579l26.983,-15.583l0,31.162Z" style="fill:#83b365;fill-rule:nonzero;"/><text x="1223.8px" y="645.333px" style="font-family:'ArialMT', 'Arial', sans-serif;font-size:29.167px;fill:#1e1c1a;">uint32</text><path d="M1280.06,683.512l-33.071,-33.07" style="fill:none;fill-rule:nonzero;stroke:#83b365;stroke-width:4.17px;"/><path d="M985.34,665.217l-118.6,0" style="fill:none;fill-rule:nonzero;stroke:#83b365;stroke-width:3.13px;"/><path d="M634.294,685.036l-264.072,-0" style="fill:none;fill-rule:nonzero;stroke:#ea6b66;stroke-width:3.13px;"/><path d="M871.296,680.798l-26.984,-15.579l26.984,-15.584l-0,31.163Z" style="fill:#83b365;fill-rule:nonzero;"/><text x="883.208px" y="643.573px" style="font-family:'ArialMT', 'Arial', sans-serif;font-size:29.167px;fill:#1e1c1a;">uint8</text><text x="763.058px" y="439.37px" style="font-family:'ArialMT', 'Arial', sans-serif;font-size:29.167px;fill:#1e1c1a;">uint8</text><text x="1684.72px" y="353.301px" style="font-family:'ArialMT', 'Arial', sans-serif;font-size:29.167px;fill:#1e1c1a;">uint32</text><path d="M931.361,681.752l-33.071,-33.071" style="fill:none;fill-rule:nonzero;stroke:#83b365;stroke-width:4.17px;"/><path d="M1538.58,243.061l118.6,-0" style="fill:none;fill-rule:nonzero;stroke:#83b365;stroke-width:3.13px;"/><path d="M1652.62,258.641l26.983,-15.579l-26.983,-15.584l-0,31.163Z" style="fill:#83b365;fill-rule:nonzero;"/><text x="1577.47px" y="219.432px" style="font-family:'ArialMT', 'Arial', sans-serif;font-size:29.167px;fill:#1e1c1a;">uint8</text><path d="M1592.55,259.595l33.071,-33.071" style="fill:none;fill-rule:nonzero;stroke:#83b365;stroke-width:4.17px;"/><path d="M1787.96,299.465l0,70.642" style="fill:none;fill-rule:nonzero;stroke:#83b365;stroke-width:3.13px;"/><path d="M1772.38,365.551l15.579,26.983l15.583,-26.983l-31.162,-0Z" style="fill:#83b365;fill-rule:nonzero;"/><path d="M1771.43,323.32l33.071,33.071" style="fill:none;fill-rule:nonzero;stroke:#83b365;stroke-width:4.17px;"/><text x="1684.72px" y="565.153px" style="font-family:'ArialMT', 'Arial', sans-serif;font-size:29.167px;fill:#1e1c1a;">uint32</text><path d="M1787.96,511.317l0,70.641" style="fill:none;fill-rule:nonzero;stroke:#83b365;stroke-width:3.13px;"/><path d="M1771.38,577.403l15.579,26.983l15.583,-26.983l-31.162,-0Z" style="fill:#83b365;fill-rule:nonzero;"/><path d="M1771.43,535.172l33.071,33.07" style="fill:none;fill-rule:nonzero;stroke:#83b365;stroke-width:4.17px;"/><path d="M735.829,298.507l0,285.109" style="fill:none;fill-rule:nonzero;stroke:#83b365;stroke-width:3.13px;"/><path d="M719.248,579.121l15.579,26.983l15.584,-26.983l-31.163,-0Z" style="fill:#83b365;fill-rule:nonzero;"/><path d="M719.208,415.387l33.071,33.071" style="fill:none;fill-rule:nonzero;stroke:#83b365;stroke-width:4.17px;"/><rect x="1680.25" y="182.097" width="207.67" height="116.41" style="fill:#fff;stroke:#1e1c1a;stroke-width:4.17px;"/><g transform="matrix(4.16667,0,0,4.16667,904.555,-189.736)"><text x="195.322px" y="102.216px" style="font-family:'ArialMT', 'Arial', sans-serif;font-size:7px;fill:#1e1c1a;">Baseband</text><text x="193.964px" y="109.216px" style="font-family:'ArialMT', 'Arial', sans-serif;font-size:7px;fill:#1e1c1a;">Modulation</text></g><ellipse cx="616.767" cy="796.215" rx="6.445" ry="6.59" style="fill:#0086cb;"/><ellipse cx="967.281" cy="796.215" rx="6.445" ry="6.59" style="fill:#0086cb;"/><ellipse cx="612.322" cy="110.42" rx="6.445" ry="6.59" style="fill:#0086cb;"/><ellipse cx="961.214" cy="110.42" rx="6.445" ry="6.59" style="fill:#0086cb;"/><ellipse cx="1310.5" cy="110.42" rx="6.445" ry="6.59" style="fill:#0086cb;"/><ellipse cx="1316.65" cy="796.215" rx="6.445" ry="6.59" style="fill:#0086cb;"/><rect x="468.32" y="36.746" width="73.1" height="826.738" style="fill:#fff;stroke:#1e1c1a;stroke-width:4.17px;"/><g transform="matrix(0,-1,1,0,45.7402,-118.033)"><text x="-618.778px" y="470.418px" style="font-family:'ArialMT', 'Arial', sans-serif;font-size:29.167px;fill:#1e1c1a;">AXI Bus</text></g><path d="M545.074,685.036l-76.754,-0" style="fill:none;fill-rule:nonzero;stroke:#ea6b66;stroke-width:3.13px;stroke-dasharray:3.13,3.13;"/></svg>