<?xml version="1.0" encoding="UTF-8" standalone="no"?><!DOCTYPE svg PUBLIC "-//W3C//DTD SVG 1.1//EN" "http://www.w3.org/Graphics/SVG/1.1/DTD/svg11.dtd"><svg width="100%" height="100%" viewBox="0 0 2335 1784" version="1.1" xmlns="http://www.w3.org/2000/svg" xmlns:xlink="http://www.w3.org/1999/xlink" xml:space="preserve" xmlns:serif="http://www.serif.com/" style="fill-rule:evenodd;clip-rule:evenodd;stroke-miterlimit:10;"><rect x="426.547" y="5.259" width="1544.1" height="1772.89" style="fill:#fdfbeb;stroke:#1e1c1a;stroke-width:1.04px;"/><rect x="626.359" y="88.551" width="1307.72" height="809.25" style="fill:none;stroke:#ea6b66;stroke-width:4.17px;"/><rect x="5.234" y="5.234" width="360.554" height="1772.92" style="fill:#fcdfea;stroke:#1e1c1a;stroke-width:1.04px;"/><rect x="46.801" y="86.901" width="278.479" height="1566.6" style="fill:#f4f3f4;stroke:#1e1c1a;stroke-width:1.04px;"/><rect x="1170.85" y="111.588" width="535.55" height="462.096" style="fill:#f4f3f4;stroke:#1e1c1a;stroke-width:1.04px;"/><rect x="710.618" y="618.084" width="178.067" height="102.529" style="fill:#fff;stroke:#1e1c1a;stroke-width:4.17px;"/><rect x="710.613" y="324.218" width="178.067" height="102.533" style="fill:#fff;stroke:#1e1c1a;stroke-width:4.17px;"/><rect x="710.618" y="765.013" width="178.067" height="102.533" style="fill:#fff;stroke:#1e1c1a;stroke-width:4.17px;"/><rect x="710.613" y="471.155" width="178.067" height="102.529" style="fill:#fff;stroke:#1e1c1a;stroke-width:4.17px;"/><path d="M888.681,370.374l259.742,0" style="fill:none;fill-rule:nonzero;stroke:#83b365;stroke-width:3.13px;"/><path d="M1143.87,385.955l26.984,-15.579l-26.984,-15.584l0,31.163Z" style="fill:#83b365;fill-rule:nonzero;"/><path d="M888.681,522.417l259.742,-0" style="fill:none;fill-rule:nonzero;stroke:#83b365;stroke-width:3.13px;"/><path d="M1143.87,537.999l26.984,-15.579l-26.984,-15.583l0,31.162Z" style="fill:#83b365;fill-rule:nonzero;"/><path d="M1799.33,669.349l-888.225,-0" style="fill:none;fill-rule:nonzero;stroke:#83b365;stroke-width:3.13px;"/><path d="M915.665,653.769l-26.984,15.579l26.984,15.583l-0,-31.162Z" style="fill:#83b365;fill-rule:nonzero;"/><path d="M1706.4,370.374l92.933,0" style="fill:none;fill-rule:nonzero;stroke:#83b365;stroke-width:3.13px;"/><path d="M1799.33,669.349l-0,-298.975" style="fill:none;fill-rule:nonzero;stroke:#83b365;stroke-width:3.13px;"/><path d="M1706.4,227.536l182.171,-0" style="fill:none;fill-rule:nonzero;stroke:#83b365;stroke-width:3.13px;"/><path d="M1888.57,816.279l0,-588.742" style="fill:none;fill-rule:nonzero;stroke:#83b365;stroke-width:3.13px;"/><path d="M1888.57,816.279l-977.462,-0" style="fill:none;fill-rule:nonzero;stroke:#83b365;stroke-width:3.13px;"/><path d="M915.665,800.698l-26.984,15.58l26.984,15.583l-0,-31.163Z" style="fill:#83b365;fill-rule:nonzero;"/><rect x="469.268" y="174.951" width="73.1" height="692.596" style="fill:#fff;stroke:#1e1c1a;stroke-width:4.17px;"/><path d="M542.368,367.817l4.166,-0" style="fill:none;fill-rule:nonzero;stroke:#1785c8;stroke-width:3.13px;"/><path d="M554.623,367.817l125.355,-0" style="fill:none;fill-rule:nonzero;stroke:#1785c8;stroke-width:3.13px;stroke-dasharray:8.09,8.09;"/><path d="M684.022,367.817l4.167,-0" style="fill:none;fill-rule:nonzero;stroke:#1785c8;stroke-width:3.13px;"/><path d="M683.63,383.397l26.983,-15.579l-26.983,-15.583l-0,31.162Z" style="fill:#1785c8;fill-rule:nonzero;"/><path d="M542.368,519.862l4.166,-0" style="fill:none;fill-rule:nonzero;stroke:#1785c8;stroke-width:3.13px;"/><path d="M554.623,519.862l125.355,-0" style="fill:none;fill-rule:nonzero;stroke:#1785c8;stroke-width:3.13px;stroke-dasharray:8.09,8.09;"/><path d="M684.022,519.862l4.167,-0" style="fill:none;fill-rule:nonzero;stroke:#1785c8;stroke-width:3.13px;"/><path d="M683.63,535.442l26.983,-15.579l-26.983,-15.584l-0,31.163Z" style="fill:#1785c8;fill-rule:nonzero;"/><path d="M710.613,816.279l-4.167,-0" style="fill:none;fill-rule:nonzero;stroke:#1785c8;stroke-width:3.13px;"/><path d="M698.359,816.279l-125.354,-0" style="fill:none;fill-rule:nonzero;stroke:#1785c8;stroke-width:3.13px;stroke-dasharray:8.09,8.09;"/><path d="M568.959,816.279l-4.167,-0" style="fill:none;fill-rule:nonzero;stroke:#1785c8;stroke-width:3.13px;"/><path d="M569.351,800.698l-26.983,15.58l26.983,15.583l0,-31.163Z" style="fill:#1785c8;fill-rule:nonzero;"/><path d="M710.613,664.236l-4.167,0" style="fill:none;fill-rule:nonzero;stroke:#1785c8;stroke-width:3.13px;"/><path d="M698.359,664.236l-125.354,0" style="fill:none;fill-rule:nonzero;stroke:#1785c8;stroke-width:3.13px;stroke-dasharray:8.09,8.09;"/><path d="M568.959,664.236l-4.167,0" style="fill:none;fill-rule:nonzero;stroke:#1785c8;stroke-width:3.13px;"/><path d="M569.351,648.654l-26.983,15.579l26.983,15.583l0,-31.162Z" style="fill:#1785c8;fill-rule:nonzero;"/><path d="M542.368,227.536l4.166,-0" style="fill:none;fill-rule:nonzero;stroke:#1785c8;stroke-width:3.13px;"/><path d="M554.953,227.536l585.096,-0" style="fill:none;fill-rule:nonzero;stroke:#1785c8;stroke-width:3.13px;stroke-dasharray:8.42,8.42;"/><path d="M1144.26,227.536l4.166,-0" style="fill:none;fill-rule:nonzero;stroke:#1785c8;stroke-width:3.13px;"/><path d="M1143.87,243.116l26.984,-15.579l-26.984,-15.584l0,31.163Z" style="fill:#1785c8;fill-rule:nonzero;"/><path d="M300.627,422.023l146.246,0" style="fill:none;fill-rule:nonzero;stroke:#241f1f;stroke-width:3.13px;"/><path d="M442.314,437.603l26.984,-15.579l-26.984,-15.583l0,31.162Z" style="fill:#241f1f;fill-rule:nonzero;"/><path d="M300.627,1245.43l146.246,0" style="fill:none;fill-rule:nonzero;stroke:#241f1f;stroke-width:3.13px;"/><path d="M442.314,1261.01l26.984,-15.579l-26.984,-15.583l0,31.162Z" style="fill:#241f1f;fill-rule:nonzero;"/><g><rect x="1999.81" y="5.259" width="335.129" height="115.821" style="fill:#f4f3f4;"/><text x="2113.68px" y="99.02px" style="font-family:'ArialMT', 'Arial', sans-serif;font-size:29.167px;fill:#1e1c1a;">AXI4-Stream</text><text x="2113.68px" y="50.662px" style="font-family:'ArialMT', 'Arial', sans-serif;font-size:29.167px;fill:#1e1c1a;">AXI4 / <tspan x="2199.62px 2219.07px " y="50.662px 50.662px ">AX</tspan>I4-Lite</text><path d="M2015.71,35.611l73.1,-0" style="fill:none;fill-rule:nonzero;stroke:#1785c8;stroke-width:3.13px;stroke-dasharray:8.33,8.33;"/><path d="M2015.71,87.806l73.1,0" style="fill:none;fill-rule:nonzero;stroke:#83b365;stroke-width:3.13px;"/></g><g transform="matrix(4.16667,0,0,4.16667,-35.199,-8.03652)"><text x="293.492px" y="58.675px" style="font-family:'ArialMT', 'Arial', sans-serif;font-size:7px;fill:#1e1c1a;">S_AXI</text><text x="293.492px" y="93.285px" style="font-family:'ArialMT', 'Arial', sans-serif;font-size:7px;fill:#1e1c1a;">S_AXIS_CTRL</text></g><text x="1187.68px" y="531.757px" style="font-family:'ArialMT', 'Arial', sans-serif;font-size:29.167px;fill:#1e1c1a;">S_AXIS_DIN</text><g transform="matrix(4.16667,0,0,4.16667,-35.199,-8.03652)"><text x="364.787px" y="58.675px" style="font-family:'ArialMT', 'Arial', sans-serif;font-size:7px;fill:#1e1c1a;">M_AXIS_DOUT</text><text x="357.913px" y="93.285px" style="font-family:'ArialMT', 'Arial', sans-serif;font-size:7px;fill:#1e1c1a;">M_AXIS_ST<tspan x="395.907px 400.057px 404.333px " y="93.285px 93.285px 93.285px ">ATU</tspan>S</text></g><text x="1321.94px" y="159.042px" style="font-family:'Arial-BoldItalicMT', 'Arial', sans-serif;font-weight:700;font-style:italic;font-size:29.167px;fill:#1e1c1a;">SD-FEC Encoder</text><g transform="matrix(4.16667,0,0,4.16667,-65.0761,-47.615)"><text x="193.141px" y="100.551px" style="font-family:'ArialMT', 'Arial', sans-serif;font-size:7px;fill:#1e1c1a;">AXI DMA</text><text x="200.537px" y="107.551px" style="font-family:'ArialMT', 'Arial', sans-serif;font-size:7px;fill:#1e1c1a;">(ctrl)</text></g><g transform="matrix(4.16667,0,0,4.16667,-65.0761,99.3225)"><text x="193.141px" y="100.551px" style="font-family:'ArialMT', 'Arial', sans-serif;font-size:7px;fill:#1e1c1a;">AXI DMA</text><text x="198.39px" y="107.551px" style="font-family:'ArialMT', 'Arial', sans-serif;font-size:7px;fill:#1e1c1a;">(data)</text></g><g transform="matrix(4.16667,0,0,4.16667,-65.0719,246.252)"><text x="193.141px" y="100.551px" style="font-family:'ArialMT', 'Arial', sans-serif;font-size:7px;fill:#1e1c1a;">AXI DMA</text><text x="200.537px" y="107.551px" style="font-family:'ArialMT', 'Arial', sans-serif;font-size:7px;fill:#1e1c1a;">(ctrl)</text></g><g transform="matrix(4.16667,0,0,4.16667,-65.0719,393.181)"><text x="193.141px" y="100.551px" style="font-family:'ArialMT', 'Arial', sans-serif;font-size:7px;fill:#1e1c1a;">AXI DMA</text><text x="198.39px" y="107.551px" style="font-family:'ArialMT', 'Arial', sans-serif;font-size:7px;fill:#1e1c1a;">(data)</text></g><g transform="matrix(0,-1,1,0,-27.1625,-43.2355)"><text x="-617.831px" y="544.268px" style="font-family:'ArialMT', 'Arial', sans-serif;font-size:29.167px;fill:#1e1c1a;">AXI Bus</text></g><text x="113.873px" y="133.801px" style="font-family:'Arial-ItalicMT', 'Arial', sans-serif;font-style:italic;font-size:29.167px;fill:#1e1c1a;">JupyterLab</text><text x="1622.32px" y="42.466px" style="font-family:'Arial-BoldItalicMT', 'Arial', sans-serif;font-weight:700;font-style:italic;font-size:29.167px;fill:#1e1c1a;">Programmable Logic</text><text x="659.106px" y="128.145px" style="font-family:'Arial-BoldItalicMT', 'Arial', sans-serif;font-weight:700;font-style:italic;font-size:29.167px;fill:#ea6b66;">Encoder Hierarchy</text><text x="45.364px" y="42.466px" style="font-family:'Arial-BoldItalicMT', 'Arial', sans-serif;font-weight:700;font-style:italic;font-size:29.167px;fill:#1e1c1a;">Processing System</text><text x="990.032px" y="338.816px" style="font-family:'ArialMT', 'Arial', sans-serif;font-size:29.167px;fill:#1e1c1a;">uint32</text><text x="990.033px" y="637.638px" style="font-family:'ArialMT', 'Arial', sans-serif;font-size:29.167px;fill:#1e1c1a;">uint32</text><text x="998.143px" y="785.193px" style="font-family:'ArialMT', 'Arial', sans-serif;font-size:29.167px;fill:#1e1c1a;">uint8</text><text x="999.248px" y="491.039px" style="font-family:'ArialMT', 'Arial', sans-serif;font-size:29.167px;fill:#1e1c1a;">uint8</text><path d="M469.298,583.107l-148.546,0" style="fill:none;fill-rule:nonzero;stroke:#241f1f;stroke-width:3.13px;"/><path d="M328.31,567.525l-26.983,15.579l26.983,15.583l-0,-31.162Z" style="fill:#241f1f;fill-rule:nonzero;"/><path d="M1013.23,386.909l33.071,-33.071" style="fill:none;fill-rule:nonzero;stroke:#83b365;stroke-width:4.17px;"/><path d="M1013.23,538.963l33.071,-33.07" style="fill:none;fill-rule:nonzero;stroke:#83b365;stroke-width:4.17px;"/><path d="M1013.23,685.711l33.071,-33.071" style="fill:none;fill-rule:nonzero;stroke:#83b365;stroke-width:4.17px;"/><path d="M1013.23,833.267l33.071,-33.071" style="fill:none;fill-rule:nonzero;stroke:#83b365;stroke-width:4.17px;"/><rect x="628.327" y="926.85" width="1307.72" height="809.25" style="fill:none;stroke:#ea6b66;stroke-width:4.17px;"/><rect x="1172.82" y="949.888" width="535.55" height="462.096" style="fill:#f4f3f4;stroke:#1e1c1a;stroke-width:1.04px;"/><rect x="712.586" y="1456.38" width="178.067" height="102.529" style="fill:#fff;stroke:#1e1c1a;stroke-width:4.17px;"/><rect x="712.582" y="1162.52" width="178.067" height="102.533" style="fill:#fff;stroke:#1e1c1a;stroke-width:4.17px;"/><rect x="712.586" y="1603.31" width="178.067" height="102.533" style="fill:#fff;stroke:#1e1c1a;stroke-width:4.17px;"/><rect x="712.582" y="1309.45" width="178.067" height="102.529" style="fill:#fff;stroke:#1e1c1a;stroke-width:4.17px;"/><path d="M890.65,1208.67l259.742,-0" style="fill:none;fill-rule:nonzero;stroke:#83b365;stroke-width:3.13px;"/><path d="M1145.84,1224.25l26.983,-15.579l-26.983,-15.584l-0,31.163Z" style="fill:#83b365;fill-rule:nonzero;"/><path d="M890.65,1360.72l259.742,0" style="fill:none;fill-rule:nonzero;stroke:#83b365;stroke-width:3.13px;"/><path d="M1145.84,1376.3l26.983,-15.58l-26.983,-15.583l-0,31.163Z" style="fill:#83b365;fill-rule:nonzero;"/><path d="M1801.3,1507.65l-888.225,0" style="fill:none;fill-rule:nonzero;stroke:#83b365;stroke-width:3.13px;"/><path d="M917.633,1492.07l-26.983,15.579l26.983,15.584l0,-31.163Z" style="fill:#83b365;fill-rule:nonzero;"/><path d="M1708.37,1208.67l92.934,-0" style="fill:none;fill-rule:nonzero;stroke:#83b365;stroke-width:3.13px;"/><path d="M1801.3,1507.65l0,-298.975" style="fill:none;fill-rule:nonzero;stroke:#83b365;stroke-width:3.13px;"/><path d="M1708.37,1065.84l182.171,0" style="fill:none;fill-rule:nonzero;stroke:#83b365;stroke-width:3.13px;"/><path d="M1890.54,1654.58l-0,-588.742" style="fill:none;fill-rule:nonzero;stroke:#83b365;stroke-width:3.13px;"/><path d="M1890.54,1654.58l-977.463,0" style="fill:none;fill-rule:nonzero;stroke:#83b365;stroke-width:3.13px;"/><path d="M917.633,1639l-26.983,15.579l26.983,15.583l0,-31.162Z" style="fill:#83b365;fill-rule:nonzero;"/><rect x="471.236" y="1013.25" width="73.1" height="692.596" style="fill:#fff;stroke:#1e1c1a;stroke-width:4.17px;"/><path d="M544.336,1206.12l4.167,0" style="fill:none;fill-rule:nonzero;stroke:#1785c8;stroke-width:3.13px;"/><path d="M556.592,1206.12l125.354,0" style="fill:none;fill-rule:nonzero;stroke:#1785c8;stroke-width:3.13px;stroke-dasharray:8.09,8.09;"/><path d="M685.991,1206.12l4.166,0" style="fill:none;fill-rule:nonzero;stroke:#1785c8;stroke-width:3.13px;"/><path d="M685.598,1221.7l26.984,-15.579l-26.984,-15.583l0,31.162Z" style="fill:#1785c8;fill-rule:nonzero;"/><path d="M544.336,1358.16l4.167,0" style="fill:none;fill-rule:nonzero;stroke:#1785c8;stroke-width:3.13px;"/><path d="M556.592,1358.16l125.354,0" style="fill:none;fill-rule:nonzero;stroke:#1785c8;stroke-width:3.13px;stroke-dasharray:8.09,8.09;"/><path d="M685.991,1358.16l4.166,0" style="fill:none;fill-rule:nonzero;stroke:#1785c8;stroke-width:3.13px;"/><path d="M685.598,1373.74l26.984,-15.579l-26.984,-15.583l0,31.162Z" style="fill:#1785c8;fill-rule:nonzero;"/><path d="M712.582,1654.58l-4.167,0" style="fill:none;fill-rule:nonzero;stroke:#1785c8;stroke-width:3.13px;"/><path d="M700.328,1654.58l-125.354,0" style="fill:none;fill-rule:nonzero;stroke:#1785c8;stroke-width:3.13px;stroke-dasharray:8.09,8.09;"/><path d="M570.927,1654.58l-4.166,0" style="fill:none;fill-rule:nonzero;stroke:#1785c8;stroke-width:3.13px;"/><path d="M571.32,1639l-26.983,15.579l26.983,15.583l-0,-31.162Z" style="fill:#1785c8;fill-rule:nonzero;"/><path d="M712.582,1502.54l-4.167,-0" style="fill:none;fill-rule:nonzero;stroke:#1785c8;stroke-width:3.13px;"/><path d="M700.328,1502.54l-125.354,-0" style="fill:none;fill-rule:nonzero;stroke:#1785c8;stroke-width:3.13px;stroke-dasharray:8.09,8.09;"/><path d="M570.927,1502.54l-4.166,-0" style="fill:none;fill-rule:nonzero;stroke:#1785c8;stroke-width:3.13px;"/><path d="M571.32,1486.95l-26.983,15.579l26.983,15.584l-0,-31.163Z" style="fill:#1785c8;fill-rule:nonzero;"/><path d="M544.336,1065.84l4.167,0" style="fill:none;fill-rule:nonzero;stroke:#1785c8;stroke-width:3.13px;"/><path d="M556.922,1065.84l585.095,0" style="fill:none;fill-rule:nonzero;stroke:#1785c8;stroke-width:3.13px;stroke-dasharray:8.42,8.42;"/><path d="M1146.23,1065.84l4.167,0" style="fill:none;fill-rule:nonzero;stroke:#1785c8;stroke-width:3.13px;"/><path d="M1145.84,1081.41l26.983,-15.579l-26.983,-15.583l-0,31.162Z" style="fill:#1785c8;fill-rule:nonzero;"/><rect x="73.557" y="1208.44" width="229.112" height="69.617" style="fill:#fff;stroke:#1e1c1a;stroke-width:4.17px;"/><rect x="73.878" y="1366.7" width="229.112" height="69.617" style="fill:#fff;stroke:#1e1c1a;stroke-width:4.17px;"/><g transform="matrix(4.16667,0,0,4.16667,-33.2305,830.263)"><text x="293.492px" y="58.675px" style="font-family:'ArialMT', 'Arial', sans-serif;font-size:7px;fill:#1e1c1a;">S_AXI</text><text x="293.492px" y="93.285px" style="font-family:'ArialMT', 'Arial', sans-serif;font-size:7px;fill:#1e1c1a;">S_AXIS_CTRL</text></g><text x="1189.65px" y="1370.06px" style="font-family:'ArialMT', 'Arial', sans-serif;font-size:29.167px;fill:#1e1c1a;">S_AXIS_DIN</text><g transform="matrix(4.16667,0,0,4.16667,-33.2305,830.263)"><text x="364.787px" y="58.675px" style="font-family:'ArialMT', 'Arial', sans-serif;font-size:7px;fill:#1e1c1a;">M_AXIS_DOUT</text><text x="357.913px" y="93.285px" style="font-family:'ArialMT', 'Arial', sans-serif;font-size:7px;fill:#1e1c1a;">M_AXIS_ST<tspan x="395.907px 400.057px 404.333px " y="93.285px 93.285px 93.285px ">ATU</tspan>S</text></g><text x="1323.91px" y="997.341px" style="font-family:'Arial-BoldItalicMT', 'Arial', sans-serif;font-weight:700;font-style:italic;font-size:29.167px;fill:#1e1c1a;">SD-FEC Decoder</text><g transform="matrix(4.16667,0,0,4.16667,-63.1076,790.684)"><text x="193.141px" y="100.551px" style="font-family:'ArialMT', 'Arial', sans-serif;font-size:7px;fill:#1e1c1a;">AXI DMA</text><text x="200.537px" y="107.551px" style="font-family:'ArialMT', 'Arial', sans-serif;font-size:7px;fill:#1e1c1a;">(ctrl)</text></g><g transform="matrix(4.16667,0,0,4.16667,-63.1076,937.622)"><text x="193.141px" y="100.551px" style="font-family:'ArialMT', 'Arial', sans-serif;font-size:7px;fill:#1e1c1a;">AXI DMA</text><text x="198.39px" y="107.551px" style="font-family:'ArialMT', 'Arial', sans-serif;font-size:7px;fill:#1e1c1a;">(data)</text></g><g transform="matrix(4.16667,0,0,4.16667,-63.1034,1084.55)"><text x="193.141px" y="100.551px" style="font-family:'ArialMT', 'Arial', sans-serif;font-size:7px;fill:#1e1c1a;">AXI DMA</text><text x="200.537px" y="107.551px" style="font-family:'ArialMT', 'Arial', sans-serif;font-size:7px;fill:#1e1c1a;">(ctrl)</text></g><g transform="matrix(4.16667,0,0,4.16667,-63.1034,1231.48)"><text x="193.141px" y="100.551px" style="font-family:'ArialMT', 'Arial', sans-serif;font-size:7px;fill:#1e1c1a;">AXI DMA</text><text x="198.39px" y="107.551px" style="font-family:'ArialMT', 'Arial', sans-serif;font-size:7px;fill:#1e1c1a;">(data)</text></g><rect x="71.484" y="171.855" width="229.112" height="127.152" style="fill:#fff;stroke:#1e1c1a;stroke-width:4.17px;"/><g transform="matrix(4.16667,0,0,4.16667,-704.205,-199.977)"><text x="200.43px" y="100.005px" style="font-family:'ArialMT', 'Arial', sans-serif;font-size:7px;fill:#1e1c1a;">Random</text><text x="201.211px" y="107.005px" style="font-family:'ArialMT', 'Arial', sans-serif;font-size:7px;fill:#1e1c1a;">Number</text><text x="196.342px" y="114.005px" style="font-family:'ArialMT', 'Arial', sans-serif;font-size:7px;fill:#1e1c1a;">Generation</text></g><rect x="71.484" y="862.143" width="229.112" height="98.763" style="fill:#fff;stroke:#1e1c1a;stroke-width:4.17px;"/><g transform="matrix(4.16667,0,0,4.16667,-704.205,490.31)"><text x="202.901px" y="100.099px" style="font-family:'ArialMT', 'Arial', sans-serif;font-size:7px;fill:#1e1c1a;">A<tspan x="207.31px 213.917px " y="100.099px 100.099px ">WG</tspan>N</text><text x="200.621px" y="107.099px" style="font-family:'ArialMT', 'Arial', sans-serif;font-size:7px;fill:#1e1c1a;">Channel</text></g><g transform="matrix(0,-1,1,0,-863.493,797.032)"><text x="-615.863px" y="1382.57px" style="font-family:'ArialMT', 'Arial', sans-serif;font-size:29.167px;fill:#1e1c1a;">AXI Bus</text></g><text x="91.877px" y="1251.55px" style="font-family:'ArialMT', 'Arial', sans-serif;font-size:29.167px;fill:#1e1c1a;">T<tspan x="108.611px 118.323px " y="1251.55px 1251.55px ">ra</tspan>nsmit Buﬀer</text><rect x="71.484" y="387.454" width="229.112" height="69.617" style="fill:#fff;stroke:#1e1c1a;stroke-width:4.17px;"/><text x="87.216px" y="430.558px" style="font-family:'ArialMT', 'Arial', sans-serif;font-size:29.167px;fill:#1e1c1a;">T<tspan x="103.949px 113.661px " y="430.558px 430.558px ">ra</tspan>nsmit Buﬀer</text><rect x="71.484" y="545.326" width="229.112" height="69.617" style="fill:#fff;stroke:#1e1c1a;stroke-width:4.17px;"/><text x="90.705px" y="588.43px" style="font-family:'ArialMT', 'Arial', sans-serif;font-size:29.167px;fill:#1e1c1a;">Receive Buﬀer</text><rect x="71.484" y="703.54" width="229.112" height="69.617" style="fill:#fff;stroke:#1e1c1a;stroke-width:4.17px;"/><text x="126.049px" y="746.645px" style="font-family:'ArialMT', 'Arial', sans-serif;font-size:29.167px;fill:#1e1c1a;">Modulate</text><rect x="73.878" y="1524.47" width="229.112" height="69.617" style="fill:#fff;stroke:#1e1c1a;stroke-width:4.17px;"/><text x="158.449px" y="1567.57px" style="font-family:'ArialMT', 'Arial', sans-serif;font-size:29.167px;fill:#1e1c1a;">BER</text><rect x="71.484" y="1049.87" width="229.112" height="69.617" style="fill:#fff;stroke:#1e1c1a;stroke-width:4.17px;"/><text x="107.407px" y="1092.98px" style="font-family:'ArialMT', 'Arial', sans-serif;font-size:29.167px;fill:#1e1c1a;">Demodulate</text><text x="95.688px" y="1409.81px" style="font-family:'ArialMT', 'Arial', sans-serif;font-size:29.167px;fill:#1e1c1a;">Receive Buﬀer</text><text x="661.074px" y="966.444px" style="font-family:'Arial-BoldItalicMT', 'Arial', sans-serif;font-weight:700;font-style:italic;font-size:29.167px;fill:#ea6b66;">Decoder Hierarchy</text><text x="992.001px" y="1177.12px" style="font-family:'ArialMT', 'Arial', sans-serif;font-size:29.167px;fill:#1e1c1a;">uint32</text><g transform="matrix(4.16667,0,0,4.16667,-88.3614,830.425)"><text x="248.002px" y="119.742px" style="font-family:'ArialMT', 'Arial', sans-serif;font-size:7px;fill:#1e1c1a;">uint8 (</text><text x="267.453px" y="119.742px" style="font-family:'Arial-ItalicMT', 'Arial', sans-serif;font-style:italic;font-size:7px;fill:#1e1c1a;">ﬁx6_2</text><text x="286.13px" y="119.742px" style="font-family:'ArialMT', 'Arial', sans-serif;font-size:7px;fill:#1e1c1a;">)</text></g><text x="992.002px" y="1475.94px" style="font-family:'ArialMT', 'Arial', sans-serif;font-size:29.167px;fill:#1e1c1a;">uint32</text><text x="1000.11px" y="1623.49px" style="font-family:'ArialMT', 'Arial', sans-serif;font-size:29.167px;fill:#1e1c1a;">uint8</text><path d="M1015.2,1225.21l33.071,-33.071" style="fill:none;fill-rule:nonzero;stroke:#83b365;stroke-width:4.17px;"/><path d="M1015.2,1377.26l33.071,-33.071" style="fill:none;fill-rule:nonzero;stroke:#83b365;stroke-width:4.17px;"/><path d="M1015.2,1524.01l33.071,-33.071" style="fill:none;fill-rule:nonzero;stroke:#83b365;stroke-width:4.17px;"/><path d="M1015.2,1671.57l33.071,-33.07" style="fill:none;fill-rule:nonzero;stroke:#83b365;stroke-width:4.17px;"/><path d="M472.184,1404.01l-148.546,0" style="fill:none;fill-rule:nonzero;stroke:#241f1f;stroke-width:3.13px;"/><path d="M331.196,1387.43l-26.983,15.579l26.983,15.583l0,-31.162Z" style="fill:#241f1f;fill-rule:nonzero;"/><path d="M186.042,301.777l-0,65.868" style="fill:none;fill-rule:nonzero;stroke:#241f1f;stroke-width:3.13px;"/><path d="M170.459,360.087l15.579,26.984l15.584,-26.984l-31.163,0Z" style="fill:#241f1f;fill-rule:nonzero;"/><path d="M186.043,616.057l0,65.869" style="fill:none;fill-rule:nonzero;stroke:#241f1f;stroke-width:3.13px;"/><path d="M170.461,674.368l15.579,26.984l15.583,-26.984l-31.162,0Z" style="fill:#241f1f;fill-rule:nonzero;"/><path d="M186.043,774.489l0,65.869" style="fill:none;fill-rule:nonzero;stroke:#241f1f;stroke-width:3.13px;"/><path d="M170.461,832.8l15.579,26.984l15.583,-26.984l-31.162,0Z" style="fill:#241f1f;fill-rule:nonzero;"/><path d="M186.044,961.906l0,65.868" style="fill:none;fill-rule:nonzero;stroke:#241f1f;stroke-width:3.13px;"/><path d="M170.462,1020.22l15.579,26.983l15.583,-26.983l-31.162,-0Z" style="fill:#241f1f;fill-rule:nonzero;"/><path d="M186.042,1120.49l-0,65.869" style="fill:none;fill-rule:nonzero;stroke:#241f1f;stroke-width:3.13px;"/><path d="M170.459,1178.8l15.579,26.983l15.584,-26.983l-31.163,-0Z" style="fill:#241f1f;fill-rule:nonzero;"/><path d="M188.435,1437.32l0,65.869" style="fill:none;fill-rule:nonzero;stroke:#241f1f;stroke-width:3.13px;"/><path d="M172.853,1495.63l15.579,26.983l15.583,-26.983l-31.162,-0Z" style="fill:#241f1f;fill-rule:nonzero;"/></svg>