<?xml version="1.0" encoding="UTF-8" standalone="no"?><!DOCTYPE svg PUBLIC "-//W3C//DTD SVG 1.1//EN" "http://www.w3.org/Graphics/SVG/1.1/DTD/svg11.dtd"><svg width="100%" height="100%" viewBox="0 0 2008 591" version="1.1" xmlns="http://www.w3.org/2000/svg" xmlns:xlink="http://www.w3.org/1999/xlink" xml:space="preserve" xmlns:serif="http://www.serif.com/" style="fill-rule:evenodd;clip-rule:evenodd;stroke-linecap:round;stroke-linejoin:round;stroke-miterlimit:1.5;"><rect x="224.784" y="13.483" width="47.244" height="94.488" style="fill:#6c8ebf;stroke:#fff;stroke-width:4.07px;"/><rect x="508.249" y="13.483" width="47.244" height="94.488" style="fill:#6c8ebf;stroke:#fff;stroke-width:4.07px;"/><rect x="745.713" y="251.948" width="47.244" height="94.488" style="fill:#ea6b66;stroke:#fff;stroke-width:4.07px;"/><rect x="1312.64" y="251.948" width="47.244" height="94.488" style="fill:#ea6b66;stroke:#fff;stroke-width:4.07px;"/><text x="122.869px" y="167.146px" style="font-family:'ArialMT', 'Arial', sans-serif;font-size:33.333px;">DIN</text><text x="91.684px" y="72.657px" style="font-family:'ArialMT', 'Arial', sans-serif;font-size:33.333px;">CTRL</text><text x="83.533px" y="406.923px" style="font-family:'ArialMT', 'Arial', sans-serif;font-size:33.333px;">DOUT</text><text x="989.219px" y="576.678px" style="font-family:'ArialMT', 'Arial', sans-serif;font-size:33.333px;">T<tspan x="1008.34px 1015.75px " y="576.678px 576.678px ">im</tspan>e</text><text x="591.155px" y="431.191px" style="font-family:'ArialMT', 'Arial', sans-serif;font-size:33.333px;">Latency</text><text x="52.735px" y="311.122px" style="font-family:'ArialMT', 'Arial', sans-serif;font-size:33.333px;">ST<tspan x="92.856px 112.615px 132.976px " y="311.122px 311.122px 311.122px ">ATU</tspan>S</text><rect x="272.028" y="107.971" width="283.465" height="94.488" style="fill:#82b366;stroke:#fff;stroke-width:5.66px;"/><rect x="555.493" y="107.971" width="283.465" height="94.488" style="fill:#82b366;stroke:#fff;stroke-width:5.66px;"/><rect x="745.713" y="346.436" width="566.929" height="94.488" style="fill:#82b366;stroke:#fff;stroke-width:5.66px;"/><rect x="1312.64" y="346.436" width="566.929" height="94.488" style="fill:#82b366;stroke:#fff;stroke-width:5.66px;"/><text x="345.198px" y="167.154px" style="font-family:'ArialMT', 'Arial', sans-serif;font-size:33.333px;fill:#fff;stroke:#fff;stroke-width:1px;stroke-linecap:square;stroke-linejoin:miter;stroke-miterlimit:2;">BLOCK 1</text><text x="960.615px" y="405.618px" style="font-family:'ArialMT', 'Arial', sans-serif;font-size:33.333px;fill:#fff;stroke:#fff;stroke-width:1px;stroke-linecap:square;stroke-linejoin:miter;stroke-miterlimit:2;">BLOCK 1</text><text x="628.662px" y="167.154px" style="font-family:'ArialMT', 'Arial', sans-serif;font-size:33.333px;fill:#fff;stroke:#fff;stroke-width:1px;stroke-linecap:square;stroke-linejoin:miter;stroke-miterlimit:2;">BLOCK 2</text><text x="1525.36px" y="405.618px" style="font-family:'ArialMT', 'Arial', sans-serif;font-size:33.333px;fill:#fff;stroke:#fff;stroke-width:1px;stroke-linecap:square;stroke-linejoin:miter;stroke-miterlimit:2;">BLOCK 2</text><path d="M1924.33,516.921l29.316,14.658l-29.316,14.658c7.329,-7.329 7.329,-21.987 -0,-29.316Z" style="fill:#0086cb;"/><path d="M88.831,531.579l1841.36,0" style="fill:none;stroke:#0086cb;stroke-width:9.77px;stroke-linecap:square;stroke-linejoin:miter;"/><path d="M726.263,383.954l19.45,9.726l-19.45,9.725c4.862,-4.862 4.862,-14.588 -0,-19.451Z" style="fill:#0086cb;"/><path d="M555.493,393.68l174.66,-0" style="fill:none;stroke:#0086cb;stroke-width:6.48px;stroke-linecap:butt;stroke-linejoin:miter;"/><path d="M555.493,202.459l-0,191.221" style="fill:none;stroke:#0086cb;stroke-width:6.48px;stroke-linecap:butt;stroke-linejoin:miter;stroke-dasharray:6.48,6.48;"/></svg>