<?xml version="1.0" encoding="UTF-8" standalone="no"?><!DOCTYPE svg PUBLIC "-//W3C//DTD SVG 1.1//EN" "http://www.w3.org/Graphics/SVG/1.1/DTD/svg11.dtd"><svg width="100%" height="100%" viewBox="0 0 761 335" version="1.1" xmlns="http://www.w3.org/2000/svg" xmlns:xlink="http://www.w3.org/1999/xlink" xml:space="preserve" xmlns:serif="http://www.serif.com/" style="fill-rule:evenodd;clip-rule:evenodd;stroke-miterlimit:1.5;"><path d="M755.878,237.402l-0,-211.418" style="fill:none;stroke:#231f20;stroke-width:2.59px;stroke-dasharray:2.59,2.59;"/><text x="695.538px" y="24.508px" style="font-family:'ArialMT', 'Arial', sans-serif;font-size:33.664px;">LSB</text><text x="1.017px" y="25.573px" style="font-family:'ArialMT', 'Arial', sans-serif;font-size:33.664px;">MSB</text><text x="370.335px" y="198.664px" style="font-family:'ArialMT', 'Arial', sans-serif;font-size:33.664px;fill:#82b366;">Integer</text><text x="78.919px" y="198.664px" style="font-family:'ArialMT', 'Arial', sans-serif;font-size:33.664px;fill:#ea6b66;">Sign Ext.</text><text x="589.18px" y="202.444px" style="font-family:'ArialMT', 'Arial', sans-serif;font-size:33.664px;fill:#6c8ebf;">Fractional</text><rect x="285.799" y="48.425" width="94.488" height="94.488" style="fill:#f1f1f2;"/><path d="M380.287,48.425l-94.488,0l-0,94.488l94.488,0l0,-94.488Zm-16.349,16.349l0,61.79c0,0 -61.79,0 -61.79,0c-0,0 -0,-61.79 -0,-61.79l61.79,0Z" style="fill:#82b366;"/><text x="323.657px" y="107.348px" style="font-family:'ArialMT', 'Arial', sans-serif;font-size:33.664px;">4</text><rect x="380.287" y="48.425" width="94.488" height="94.488" style="fill:#f1f1f2;"/><path d="M474.775,48.425l-94.488,0l0,94.488l94.488,0l0,-94.488Zm-16.349,16.349l0,61.79c0,0 -61.79,0 -61.79,0c0,0 0,-61.79 0,-61.79l61.79,0Z" style="fill:#82b366;"/><text x="418.145px" y="107.348px" style="font-family:'ArialMT', 'Arial', sans-serif;font-size:33.664px;">3</text><rect x="474.775" y="48.425" width="94.488" height="94.488" style="fill:#f1f1f2;"/><path d="M569.263,48.425l-94.488,0l0,94.488l94.488,0l0,-94.488Zm-16.349,16.349l0,61.79c0,0 -61.79,0 -61.79,0c0,0 0,-61.79 0,-61.79l61.79,0Z" style="fill:#82b366;"/><text x="512.634px" y="107.348px" style="font-family:'ArialMT', 'Arial', sans-serif;font-size:33.664px;">2</text><rect x="569.263" y="48.425" width="94.488" height="94.488" style="fill:#f1f1f2;"/><path d="M663.752,48.425l-94.489,0l0,94.488l94.489,0l-0,-94.488Zm-16.349,16.349l-0,61.79c-0,0 -61.791,0 -61.791,0c0,0 0,-61.79 0,-61.79l61.791,0Z" style="fill:#6c8ebf;"/><text x="607.122px" y="107.348px" style="font-family:'ArialMT', 'Arial', sans-serif;font-size:33.664px;">1</text><rect x="663.752" y="48.425" width="94.488" height="94.488" style="fill:#f1f1f2;"/><path d="M758.24,48.425l-94.488,0l-0,94.488l94.488,0l-0,-94.488Zm-16.349,16.349l-0,61.79c-0,0 -61.79,0 -61.79,0c-0,0 -0,-61.79 -0,-61.79l61.79,0Z" style="fill:#6c8ebf;"/><text x="701.61px" y="107.348px" style="font-family:'ArialMT', 'Arial', sans-serif;font-size:33.664px;">0</text><rect x="285.799" y="237.402" width="94.488" height="94.488" style="fill:#f1f1f2;"/><path d="M380.287,237.402l-94.488,-0l-0,94.488l94.488,-0l0,-94.488Zm-16.349,16.349l0,61.79c0,-0 -61.79,-0 -61.79,-0c-0,-0 -0,-61.79 -0,-61.79l61.79,-0Z" style="fill:#82b366;"/><text x="323.657px" y="296.324px" style="font-family:'ArialMT', 'Arial', sans-serif;font-size:33.664px;">4</text><rect x="380.287" y="237.402" width="94.488" height="94.488" style="fill:#f1f1f2;"/><path d="M474.775,237.402l-94.488,-0l0,94.488l94.488,-0l0,-94.488Zm-16.349,16.349l0,61.79c0,-0 -61.79,-0 -61.79,-0c0,-0 0,-61.79 0,-61.79l61.79,-0Z" style="fill:#82b366;"/><text x="418.145px" y="296.324px" style="font-family:'ArialMT', 'Arial', sans-serif;font-size:33.664px;">3</text><rect x="474.775" y="237.402" width="94.488" height="94.488" style="fill:#f1f1f2;"/><path d="M569.263,237.402l-94.488,-0l0,94.488l94.488,-0l0,-94.488Zm-16.349,16.349l0,61.79c0,-0 -61.79,-0 -61.79,-0c0,-0 0,-61.79 0,-61.79l61.79,-0Z" style="fill:#82b366;"/><text x="512.634px" y="296.324px" style="font-family:'ArialMT', 'Arial', sans-serif;font-size:33.664px;">2</text><rect x="569.263" y="237.402" width="94.488" height="94.488" style="fill:#f1f1f2;"/><path d="M663.752,237.402l-94.489,-0l0,94.488l94.489,-0l-0,-94.488Zm-16.349,16.349l-0,61.79c-0,-0 -61.791,-0 -61.791,-0c0,-0 0,-61.79 0,-61.79l61.791,-0Z" style="fill:#6c8ebf;"/><text x="607.122px" y="296.324px" style="font-family:'ArialMT', 'Arial', sans-serif;font-size:33.664px;">1</text><rect x="663.752" y="237.402" width="94.488" height="94.488" style="fill:#f1f1f2;"/><path d="M758.24,237.402l-94.488,-0l-0,94.488l94.488,-0l-0,-94.488Zm-16.349,16.349l-0,61.79c-0,-0 -61.79,-0 -61.79,-0c-0,-0 -0,-61.79 -0,-61.79l61.79,-0Z" style="fill:#6c8ebf;"/><text x="701.61px" y="296.324px" style="font-family:'ArialMT', 'Arial', sans-serif;font-size:33.664px;">0</text><rect x="285.799" y="237.402" width="94.488" height="94.488" style="fill:none;stroke:#fff;stroke-width:2.59px;"/><rect x="380.287" y="237.402" width="94.488" height="94.488" style="fill:none;stroke:#fff;stroke-width:2.59px;"/><rect x="474.775" y="237.402" width="94.488" height="94.488" style="fill:none;stroke:#fff;stroke-width:2.59px;"/><rect x="569.263" y="237.402" width="94.488" height="94.488" style="fill:none;stroke:#fff;stroke-width:2.59px;"/><rect x="663.752" y="237.402" width="94.488" height="94.488" style="fill:none;stroke:#fff;stroke-width:2.59px;"/><rect x="2.334" y="237.196" width="94.488" height="94.488" style="fill:#f1f1f2;"/><path d="M96.823,237.196l-94.489,0l0,94.488l94.489,0l-0,-94.488Zm-16.35,16.349l0,61.79c0,0 -61.79,0 -61.79,0c0,0 0,-61.79 0,-61.79l61.79,0Z" style="fill:#ea6b66;"/><text x="40.193px" y="296.119px" style="font-family:'ArialMT', 'Arial', sans-serif;font-size:33.664px;">7</text><rect x="96.823" y="237.196" width="94.488" height="94.488" style="fill:#f1f1f2;"/><path d="M191.311,237.196l-94.488,0l-0,94.488l94.488,0l-0,-94.488Zm-16.349,16.349l-0,61.79c-0,0 -61.79,0 -61.79,0c-0,0 -0,-61.79 -0,-61.79l61.79,0Z" style="fill:#ea6b66;"/><text x="134.681px" y="296.119px" style="font-family:'ArialMT', 'Arial', sans-serif;font-size:33.664px;">6</text><path d="M4.697,237.402l-0,-211.418" style="fill:none;stroke:#231f20;stroke-width:2.59px;stroke-dasharray:2.59,2.59;"/><rect x="285.799" y="48.425" width="94.488" height="94.488" style="fill:none;stroke:#fff;stroke-width:2.59px;"/><rect x="380.287" y="48.425" width="94.488" height="94.488" style="fill:none;stroke:#fff;stroke-width:2.59px;"/><rect x="474.775" y="48.425" width="94.488" height="94.488" style="fill:none;stroke:#fff;stroke-width:2.59px;"/><rect x="569.263" y="48.425" width="94.488" height="94.488" style="fill:none;stroke:#fff;stroke-width:2.59px;"/><rect x="663.752" y="48.425" width="94.488" height="94.488" style="fill:none;stroke:#fff;stroke-width:2.59px;"/><rect x="96.823" y="237.402" width="94.488" height="94.488" style="fill:none;stroke:#fff;stroke-width:2.59px;"/><rect x="191.406" y="237.402" width="94.488" height="94.488" style="fill:#f1f1f2;"/><path d="M285.894,237.402l-94.488,-0l-0,94.488l94.488,-0l-0,-94.488Zm-16.349,16.349l-0,61.79c-0,-0 -61.79,-0 -61.79,-0c-0,-0 -0,-61.79 -0,-61.79l61.79,-0Z" style="fill:#ea6b66;"/><text x="229.264px" y="296.324px" style="font-family:'ArialMT', 'Arial', sans-serif;font-size:33.664px;">5</text><rect x="191.406" y="237.607" width="94.488" height="94.488" style="fill:none;stroke:#fff;stroke-width:2.59px;"/><rect x="191.406" y="48.185" width="94.488" height="94.488" style="fill:#f1f1f2;"/><path d="M285.894,48.185l-94.488,0l-0,94.488l94.488,0l-0,-94.488Zm-16.349,16.349l-0,61.79c-0,0 -61.79,0 -61.79,0c-0,0 -0,-61.79 -0,-61.79l61.79,0Z" style="fill:#ea6b66;"/><text x="229.264px" y="107.108px" style="font-family:'ArialMT', 'Arial', sans-serif;font-size:33.664px;">5</text><rect x="191.406" y="48.391" width="94.488" height="94.488" style="fill:none;stroke:#fff;stroke-width:2.59px;"/><rect x="2.334" y="237.402" width="94.488" height="94.488" style="fill:none;stroke:#fff;stroke-width:2.59px;"/></svg>