<?xml version="1.0" encoding="UTF-8" standalone="no"?><!DOCTYPE svg PUBLIC "-//W3C//DTD SVG 1.1//EN" "http://www.w3.org/Graphics/SVG/1.1/DTD/svg11.dtd"><svg width="100%" height="100%" viewBox="0 0 1185 539" version="1.1" xmlns="http://www.w3.org/2000/svg" xmlns:xlink="http://www.w3.org/1999/xlink" xml:space="preserve" xmlns:serif="http://www.serif.com/" style="fill-rule:evenodd;clip-rule:evenodd;stroke-miterlimit:10;"><rect x="5.234" y="5.234" width="1173.77" height="528.361" style="fill:#fcdfea;stroke:#1e1c1a;stroke-width:1.04px;"/><rect x="46.801" y="86.901" width="1091.52" height="381.112" style="fill:#f4f3f4;stroke:#1e1c1a;stroke-width:1.04px;"/><g transform="matrix(4.16667,0,0,4.16667,-62.1902,-290.147)"><text x="39.297px" y="171.665px" style="font-family:'ArialMT', 'Arial', sans-serif;font-size:7px;fill:#1e1c1a;">Notebook 02</text><text x="44.55px" y="178.665px" style="font-family:'ArialMT', 'Arial', sans-serif;font-size:7px;fill:#1e1c1a;">Encoding</text></g><g transform="matrix(4.16667,0,0,4.16667,326.039,-290.79)"><text x="44.118px" y="171.665px" style="font-family:'ArialMT', 'Arial', sans-serif;font-size:7px;fill:#1e1c1a;">Notebook 03</text><text x="33.615px" y="178.665px" style="font-family:'ArialMT', 'Arial', sans-serif;font-size:7px;fill:#1e1c1a;">Channel Simulation</text></g><text x="83.045px" y="127.261px" style="font-family:'Arial-ItalicMT', 'Arial', sans-serif;font-style:italic;font-size:29.167px;fill:#1e1c1a;">JupyterLab</text><text x="45.364px" y="42.466px" style="font-family:'Arial-BoldItalicMT', 'Arial', sans-serif;font-weight:700;font-style:italic;font-size:29.167px;fill:#1e1c1a;">Processing System</text><g transform="matrix(4.16667,0,0,4.16667,755.449,-290.79)"><text x="39.297px" y="171.665px" style="font-family:'ArialMT', 'Arial', sans-serif;font-size:7px;fill:#1e1c1a;">Notebook 04</text><text x="44.357px" y="178.665px" style="font-family:'ArialMT', 'Arial', sans-serif;font-size:7px;fill:#1e1c1a;">Decoding</text></g><path d="M902.385,148.967l161.674,-0l38.279,36.045l-0,204.851l-200.904,-0l-0,-240.896l162.625,-0l38.279,36.045l-37.328,-0l0,-35.598" style="fill:#fff;stroke:#808080;stroke-width:5.47px;stroke-miterlimit:1.5;"/><text x="295.978px" y="259.006px" style="font-family:'ArialMT', 'Arial', sans-serif;font-size:29.167px;fill:#1e1c1a;">Encoded Data</text><text x="723.418px" y="259.006px" style="font-family:'ArialMT', 'Arial', sans-serif;font-size:29.167px;fill:#1e1c1a;">LLR V<tspan x="802.314px 818.535px " y="259.006px 259.006px ">al</tspan>ues</text><path d="M473.755,269.254l16.406,8.203l-16.406,8.203c4.102,-4.101 4.102,-12.305 0,-16.406Z"/><path d="M286.646,277.457l190.39,-0" style="fill:none;stroke:#000;stroke-width:5.47px;stroke-miterlimit:1.5;"/><path d="M882.386,269.254l16.407,8.203l-16.407,8.203c4.102,-4.101 4.102,-12.305 0,-16.406Z"/><path d="M695.277,277.457l190.391,-0" style="fill:none;stroke:#000;stroke-width:5.47px;stroke-miterlimit:1.5;"/><path d="M84.745,148.967l161.675,-0l38.279,36.045l-0,204.851l-200.905,-0l0,-240.896l162.626,-0l38.279,36.045l-37.328,-0l-0,-35.598" style="fill:#fff;stroke:#808080;stroke-width:5.47px;stroke-miterlimit:1.5;"/><path d="M493.06,148.967l161.675,-0l38.278,36.045l0,204.851l-200.904,-0l0,-240.896l162.626,-0l38.278,36.045l-37.327,-0l-0,-35.598" style="fill:#fff;stroke:#0086cb;stroke-width:5.47px;stroke-miterlimit:1.5;"/><g transform="matrix(4.16667,0,0,4.16667,346.125,-505.055)"><text x="39.694px" y="176.416px" style="font-family:'ArialMT', 'Arial', sans-serif;font-size:7px;fill:#1e1c1a;">Symbol Map</text><text x="57.395px" y="184.416px" style="font-family:'ArialMT', 'Arial', sans-serif;font-size:7px;fill:#1e1c1a;">↓</text><text x="48.387px" y="192.416px" style="font-family:'ArialMT', 'Arial', sans-serif;font-size:7px;fill:#1e1c1a;">A<tspan x="52.796px 59.403px " y="192.416px 192.416px ">WG</tspan>N</text><text x="57.395px" y="200.416px" style="font-family:'ArialMT', 'Arial', sans-serif;font-size:7px;fill:#1e1c1a;">↓</text><text x="52.724px" y="208.416px" style="font-family:'ArialMT', 'Arial', sans-serif;font-size:7px;fill:#1e1c1a;">LLR</text></g></svg>