<?xml version="1.0" encoding="UTF-8" standalone="no"?><!DOCTYPE svg PUBLIC "-//W3C//DTD SVG 1.1//EN" "http://www.w3.org/Graphics/SVG/1.1/DTD/svg11.dtd"><svg width="100%" height="100%" viewBox="0 0 2008 969" version="1.1" xmlns="http://www.w3.org/2000/svg" xmlns:xlink="http://www.w3.org/1999/xlink" xml:space="preserve" xmlns:serif="http://www.serif.com/" style="fill-rule:evenodd;clip-rule:evenodd;stroke-miterlimit:1.5;"><text x="867.052px" y="534.746px" style="font-family:'Arial-BoldMT', 'Arial', sans-serif;font-weight:700;font-size:33.333px;fill:#ea6b66;">-1</text><text x="950.135px" y="614.173px" style="font-family:'Arial-BoldMT', 'Arial', sans-serif;font-weight:700;font-size:33.333px;fill:#82b366;">-1</text><text x="1114.02px" y="535.082px" style="font-family:'Arial-BoldMT', 'Arial', sans-serif;font-weight:700;font-size:33.333px;fill:#ea6b66;">1</text><text x="962.396px" y="378.289px" style="font-family:'Arial-BoldMT', 'Arial', sans-serif;font-weight:700;font-size:33.333px;fill:#82b366;">1</text><text x="1350.24px" y="535.082px" style="font-family:'Arial-BoldMT', 'Arial', sans-serif;font-weight:700;font-size:33.333px;fill:#ea6b66;">3</text><text x="957.79px" y="141.689px" style="font-family:'Arial-BoldMT', 'Arial', sans-serif;font-weight:700;font-size:33.333px;fill:#82b366;">3</text><g transform="matrix(1,0,0,1,-238.209,-213.408)"><text x="850.69px" y="402.721px" style="font-family:'Arial-BoldMT', 'Arial', sans-serif;font-weight:700;font-size:33.333px;fill:#ea6b66;">00</text><text x="887.766px" y="402.721px" style="font-family:'Arial-BoldMT', 'Arial', sans-serif;font-weight:700;font-size:33.333px;fill:#82b366;">00</text></g><g transform="matrix(1,0,0,1,-1.67934,-213.408)"><text x="850.69px" y="402.721px" style="font-family:'Arial-BoldMT', 'Arial', sans-serif;font-weight:700;font-size:33.333px;fill:#ea6b66;">01</text><text x="887.766px" y="402.721px" style="font-family:'Arial-BoldMT', 'Arial', sans-serif;font-weight:700;font-size:33.333px;fill:#82b366;">00</text></g><g transform="matrix(1,0,0,1,0.428532,22.812)"><text x="850.69px" y="402.721px" style="font-family:'Arial-BoldMT', 'Arial', sans-serif;font-weight:700;font-size:33.333px;fill:#ea6b66;">01</text><text x="887.766px" y="402.721px" style="font-family:'Arial-BoldMT', 'Arial', sans-serif;font-weight:700;font-size:33.333px;fill:#82b366;">01</text></g><g transform="matrix(1,0,0,1,0.428532,258.661)"><text x="852.529px" y="402.721px" style="font-family:'Arial-BoldMT', 'Arial', sans-serif;font-weight:700;font-size:33.333px;fill:#ea6b66;">01</text><text x="887.766px" y="402.721px" style="font-family:'Arial-BoldMT', 'Arial', sans-serif;font-weight:700;font-size:33.333px;fill:#82b366;">1<tspan x="904.466px " y="402.721px ">1</tspan></text></g><g transform="matrix(1,0,0,1,-1.93245,495.253)"><text x="851.609px" y="402.721px" style="font-family:'Arial-BoldMT', 'Arial', sans-serif;font-weight:700;font-size:33.333px;fill:#ea6b66;">01</text><text x="886.847px" y="402.721px" style="font-family:'Arial-BoldMT', 'Arial', sans-serif;font-weight:700;font-size:33.333px;fill:#82b366;">10</text></g><g transform="matrix(1,0,0,1,233.163,495.253)"><text x="852.529px" y="402.721px" style="font-family:'Arial-BoldMT', 'Arial', sans-serif;font-weight:700;font-size:33.333px;fill:#ea6b66;">1<tspan x="869.228px " y="402.721px ">1</tspan></text><text x="885.927px" y="402.721px" style="font-family:'Arial-BoldMT', 'Arial', sans-serif;font-weight:700;font-size:33.333px;fill:#82b366;">10</text></g><g transform="matrix(1,0,0,1,235.526,259.032)"><text x="853.448px" y="402.721px" style="font-family:'Arial-BoldMT', 'Arial', sans-serif;font-weight:700;font-size:33.333px;fill:#ea6b66;">1<tspan x="870.148px " y="402.721px ">1</tspan></text><text x="886.847px" y="402.721px" style="font-family:'Arial-BoldMT', 'Arial', sans-serif;font-weight:700;font-size:33.333px;fill:#82b366;">1<tspan x="903.546px " y="402.721px ">1</tspan></text></g><g transform="matrix(1,0,0,1,235.782,22.812)"><text x="851.609px" y="402.721px" style="font-family:'Arial-BoldMT', 'Arial', sans-serif;font-weight:700;font-size:33.333px;fill:#ea6b66;">1<tspan x="868.308px " y="402.721px ">1</tspan></text><text x="886.847px" y="402.721px" style="font-family:'Arial-BoldMT', 'Arial', sans-serif;font-weight:700;font-size:33.333px;fill:#82b366;">01</text></g><g transform="matrix(1,0,0,1,233.264,-213.408)"><text x="851.609px" y="402.721px" style="font-family:'Arial-BoldMT', 'Arial', sans-serif;font-weight:700;font-size:33.333px;fill:#ea6b66;">1<tspan x="868.308px " y="402.721px ">1</tspan></text><text x="886.847px" y="402.721px" style="font-family:'Arial-BoldMT', 'Arial', sans-serif;font-weight:700;font-size:33.333px;fill:#82b366;">00</text></g><g transform="matrix(1,0,0,1,469.697,-213.408)"><text x="850.69px" y="402.721px" style="font-family:'Arial-BoldMT', 'Arial', sans-serif;font-weight:700;font-size:33.333px;fill:#ea6b66;">10</text><text x="887.766px" y="402.721px" style="font-family:'Arial-BoldMT', 'Arial', sans-serif;font-weight:700;font-size:33.333px;fill:#82b366;">00</text></g><g transform="matrix(1,0,0,1,472.059,22.812)"><text x="850.69px" y="402.721px" style="font-family:'Arial-BoldMT', 'Arial', sans-serif;font-weight:700;font-size:33.333px;fill:#ea6b66;">10</text><text x="887.766px" y="402.721px" style="font-family:'Arial-BoldMT', 'Arial', sans-serif;font-weight:700;font-size:33.333px;fill:#82b366;">01</text></g><g transform="matrix(1,0,0,1,472.059,258.829)"><text x="851.609px" y="402.721px" style="font-family:'Arial-BoldMT', 'Arial', sans-serif;font-weight:700;font-size:33.333px;fill:#ea6b66;">10</text><text x="888.686px" y="402.721px" style="font-family:'Arial-BoldMT', 'Arial', sans-serif;font-weight:700;font-size:33.333px;fill:#82b366;">1<tspan x="905.385px " y="402.721px ">1</tspan></text></g><g transform="matrix(1,0,0,1,469.796,495.253)"><text x="850.69px" y="402.721px" style="font-family:'Arial-BoldMT', 'Arial', sans-serif;font-weight:700;font-size:33.333px;fill:#ea6b66;">10</text><text x="887.766px" y="402.721px" style="font-family:'Arial-BoldMT', 'Arial', sans-serif;font-weight:700;font-size:33.333px;fill:#82b366;">10</text></g><g transform="matrix(1,0,0,1,-235.792,22.812)"><text x="850.69px" y="402.721px" style="font-family:'Arial-BoldMT', 'Arial', sans-serif;font-weight:700;font-size:33.333px;fill:#ea6b66;">00</text><text x="887.766px" y="402.721px" style="font-family:'Arial-BoldMT', 'Arial', sans-serif;font-weight:700;font-size:33.333px;fill:#82b366;">01</text></g><g transform="matrix(1,0,0,1,-235.792,259.032)"><text x="851.609px" y="402.721px" style="font-family:'Arial-BoldMT', 'Arial', sans-serif;font-weight:700;font-size:33.333px;fill:#ea6b66;">00</text><text x="888.686px" y="402.721px" style="font-family:'Arial-BoldMT', 'Arial', sans-serif;font-weight:700;font-size:33.333px;fill:#82b366;">1<tspan x="905.385px " y="402.721px ">1</tspan></text></g><g transform="matrix(1,0,0,1,-238.054,495.253)"><text x="850.69px" y="402.721px" style="font-family:'Arial-BoldMT', 'Arial', sans-serif;font-weight:700;font-size:33.333px;fill:#ea6b66;">00</text><text x="887.766px" y="402.721px" style="font-family:'Arial-BoldMT', 'Arial', sans-serif;font-weight:700;font-size:33.333px;fill:#82b366;">10</text></g><text x="903.045px" y="47.777px" style="font-family:'ArialMT', 'Arial', sans-serif;font-size:33.333px;">Imag</text><text x="1405.3px" y="538.221px" style="font-family:'ArialMT', 'Arial', sans-serif;font-size:33.333px;">Real</text><text x="630.015px" y="535.082px" style="font-family:'Arial-BoldMT', 'Arial', sans-serif;font-weight:700;font-size:33.333px;fill:#ea6b66;">-3</text><text x="947.832px" y="850.35px" style="font-family:'Arial-BoldMT', 'Arial', sans-serif;font-weight:700;font-size:33.333px;fill:#82b366;">-3</text><path d="M991.745,36.194l12.192,-24.383l12.192,24.383c-6.096,-6.095 -18.288,-6.095 -24.384,0Z" style="fill:#0086cb;"/><path d="M1003.94,956.693l0,-925.375" style="fill:none;stroke:#0086cb;stroke-width:8.13px;"/><path d="M1452,472.06l24.383,12.192l-24.383,12.192c6.095,-6.096 6.095,-18.288 -0,-24.384Z" style="fill:#0086cb;"/><path d="M531.496,484.252l925.375,-0" style="fill:none;stroke:#0086cb;stroke-width:8.13px;"/><path d="M1122.05,465.973l0,36.558" style="fill:none;stroke:#0086cb;stroke-width:8.13px;"/><path d="M985.658,366.142l36.558,-0" style="fill:none;stroke:#0086cb;stroke-width:8.13px;"/><path d="M985.658,129.921l36.558,0" style="fill:none;stroke:#0086cb;stroke-width:8.13px;"/><path d="M985.658,602.362l36.558,0" style="fill:none;stroke:#0086cb;stroke-width:8.13px;"/><path d="M985.658,838.583l36.558,-0" style="fill:none;stroke:#0086cb;stroke-width:8.13px;"/><path d="M1358.27,465.973l-0,36.558" style="fill:none;stroke:#0086cb;stroke-width:8.13px;"/><path d="M885.827,465.973l-0,36.558" style="fill:none;stroke:#0086cb;stroke-width:8.13px;"/><path d="M649.606,465.973l0,36.558" style="fill:none;stroke:#0086cb;stroke-width:8.13px;"/><circle cx="885.827" cy="602.362" r="23.622" style="fill:#d6b656;"/><path d="M885.827,578.74c13.037,0 23.622,10.585 23.622,23.622c-0,13.038 -10.585,23.622 -23.622,23.622c-13.038,0 -23.622,-10.584 -23.622,-23.622c-0,-13.037 10.584,-23.622 23.622,-23.622Zm-0,8.128c8.551,-0 15.494,6.943 15.494,15.494c0,8.552 -6.943,15.494 -15.494,15.494c-8.552,0 -15.494,-6.942 -15.494,-15.494c-0,-8.551 6.942,-15.494 15.494,-15.494Z" style="fill:#0086cb;"/><circle cx="885.827" cy="366.142" r="23.622" style="fill:#d6b656;"/><path d="M885.827,342.52c13.037,-0 23.622,10.584 23.622,23.622c-0,13.037 -10.585,23.622 -23.622,23.622c-13.038,-0 -23.622,-10.585 -23.622,-23.622c-0,-13.038 10.584,-23.622 23.622,-23.622Zm-0,8.127c8.551,0 15.494,6.943 15.494,15.495c0,8.551 -6.943,15.494 -15.494,15.494c-8.552,-0 -15.494,-6.943 -15.494,-15.494c-0,-8.552 6.942,-15.495 15.494,-15.495Z" style="fill:#0086cb;"/><circle cx="649.606" cy="602.362" r="23.622" style="fill:#d6b656;"/><path d="M649.606,578.74c13.038,0 23.622,10.585 23.622,23.622c0,13.038 -10.584,23.622 -23.622,23.622c-13.037,0 -23.622,-10.584 -23.622,-23.622c0,-13.037 10.585,-23.622 23.622,-23.622Zm0,8.128c8.552,-0 15.495,6.943 15.495,15.494c-0,8.552 -6.943,15.494 -15.495,15.494c-8.551,0 -15.494,-6.942 -15.494,-15.494c0,-8.551 6.943,-15.494 15.494,-15.494Z" style="fill:#0086cb;"/><circle cx="649.606" cy="366.142" r="23.622" style="fill:#d6b656;"/><path d="M649.606,342.52c13.038,-0 23.622,10.584 23.622,23.622c0,13.037 -10.584,23.622 -23.622,23.622c-13.037,-0 -23.622,-10.585 -23.622,-23.622c0,-13.038 10.585,-23.622 23.622,-23.622Zm0,8.127c8.552,0 15.495,6.943 15.495,15.495c-0,8.551 -6.943,15.494 -15.495,15.494c-8.551,-0 -15.494,-6.943 -15.494,-15.494c0,-8.552 6.943,-15.495 15.494,-15.495Z" style="fill:#0086cb;"/><circle cx="885.827" cy="129.921" r="23.622" style="fill:#d6b656;"/><path d="M885.827,106.299c13.037,0 23.622,10.585 23.622,23.622c-0,13.038 -10.585,23.622 -23.622,23.622c-13.038,0 -23.622,-10.584 -23.622,-23.622c-0,-13.037 10.584,-23.622 23.622,-23.622Zm-0,8.128c8.551,0 15.494,6.943 15.494,15.494c0,8.552 -6.943,15.495 -15.494,15.495c-8.552,-0 -15.494,-6.943 -15.494,-15.495c-0,-8.551 6.942,-15.494 15.494,-15.494Z" style="fill:#0086cb;"/><circle cx="649.606" cy="129.921" r="23.622" style="fill:#d6b656;"/><path d="M649.606,106.299c13.038,0 23.622,10.585 23.622,23.622c0,13.038 -10.584,23.622 -23.622,23.622c-13.037,0 -23.622,-10.584 -23.622,-23.622c0,-13.037 10.585,-23.622 23.622,-23.622Zm0,8.128c8.552,0 15.495,6.943 15.495,15.494c-0,8.552 -6.943,15.495 -15.495,15.495c-8.551,-0 -15.494,-6.943 -15.494,-15.495c0,-8.551 6.943,-15.494 15.494,-15.494Z" style="fill:#0086cb;"/><circle cx="885.827" cy="838.583" r="23.622" style="fill:#d6b656;"/><path d="M885.827,814.961c13.037,-0 23.622,10.584 23.622,23.622c-0,13.037 -10.585,23.622 -23.622,23.622c-13.038,-0 -23.622,-10.585 -23.622,-23.622c-0,-13.038 10.584,-23.622 23.622,-23.622Zm-0,8.127c8.551,0 15.494,6.943 15.494,15.495c0,8.551 -6.943,15.494 -15.494,15.494c-8.552,-0 -15.494,-6.943 -15.494,-15.494c-0,-8.552 6.942,-15.495 15.494,-15.495Z" style="fill:#0086cb;"/><circle cx="649.606" cy="838.583" r="23.622" style="fill:#d6b656;"/><path d="M649.606,814.961c13.038,-0 23.622,10.584 23.622,23.622c0,13.037 -10.584,23.622 -23.622,23.622c-13.037,-0 -23.622,-10.585 -23.622,-23.622c0,-13.038 10.585,-23.622 23.622,-23.622Zm0,8.127c8.552,0 15.495,6.943 15.495,15.495c-0,8.551 -6.943,15.494 -15.495,15.494c-8.551,-0 -15.494,-6.943 -15.494,-15.494c0,-8.552 6.943,-15.495 15.494,-15.495Z" style="fill:#0086cb;"/><circle cx="1358.27" cy="838.583" r="23.622" style="fill:#d6b656;"/><path d="M1358.27,814.961c13.037,-0 23.622,10.584 23.622,23.622c-0,13.037 -10.585,23.622 -23.622,23.622c-13.038,-0 -23.622,-10.585 -23.622,-23.622c-0,-13.038 10.584,-23.622 23.622,-23.622Zm-0,8.127c8.551,0 15.494,6.943 15.494,15.495c-0,8.551 -6.943,15.494 -15.494,15.494c-8.552,-0 -15.495,-6.943 -15.495,-15.494c0,-8.552 6.943,-15.495 15.495,-15.495Z" style="fill:#0086cb;"/><circle cx="1122.05" cy="838.583" r="23.622" style="fill:#d6b656;"/><path d="M1122.05,814.961c13.038,-0 23.622,10.584 23.622,23.622c0,13.037 -10.584,23.622 -23.622,23.622c-13.037,-0 -23.622,-10.585 -23.622,-23.622c0,-13.038 10.585,-23.622 23.622,-23.622Zm0,8.127c8.552,0 15.494,6.943 15.494,15.495c0,8.551 -6.942,15.494 -15.494,15.494c-8.551,-0 -15.494,-6.943 -15.494,-15.494c-0,-8.552 6.943,-15.495 15.494,-15.495Z" style="fill:#0086cb;"/><circle cx="1358.27" cy="129.921" r="23.622" style="fill:#d6b656;"/><path d="M1358.27,106.299c13.037,0 23.622,10.585 23.622,23.622c-0,13.038 -10.585,23.622 -23.622,23.622c-13.038,0 -23.622,-10.584 -23.622,-23.622c-0,-13.037 10.584,-23.622 23.622,-23.622Zm-0,8.128c8.551,0 15.494,6.943 15.494,15.494c-0,8.552 -6.943,15.495 -15.494,15.495c-8.552,-0 -15.495,-6.943 -15.495,-15.495c0,-8.551 6.943,-15.494 15.495,-15.494Z" style="fill:#0086cb;"/><circle cx="1122.05" cy="129.921" r="23.622" style="fill:#d6b656;"/><path d="M1122.05,106.299c13.038,0 23.622,10.585 23.622,23.622c0,13.038 -10.584,23.622 -23.622,23.622c-13.037,0 -23.622,-10.584 -23.622,-23.622c0,-13.037 10.585,-23.622 23.622,-23.622Zm0,8.128c8.552,0 15.494,6.943 15.494,15.494c0,8.552 -6.942,15.495 -15.494,15.495c-8.551,-0 -15.494,-6.943 -15.494,-15.495c-0,-8.551 6.943,-15.494 15.494,-15.494Z" style="fill:#0086cb;"/><circle cx="1122.05" cy="602.362" r="23.622" style="fill:#d6b656;"/><path d="M1122.05,578.74c13.038,0 23.622,10.585 23.622,23.622c0,13.038 -10.584,23.622 -23.622,23.622c-13.037,0 -23.622,-10.584 -23.622,-23.622c0,-13.037 10.585,-23.622 23.622,-23.622Zm0,8.128c8.552,-0 15.494,6.943 15.494,15.494c0,8.552 -6.942,15.494 -15.494,15.494c-8.551,0 -15.494,-6.942 -15.494,-15.494c-0,-8.551 6.943,-15.494 15.494,-15.494Z" style="fill:#0086cb;"/><circle cx="1122.05" cy="366.142" r="23.622" style="fill:#d6b656;"/><path d="M1122.05,342.52c13.038,-0 23.622,10.584 23.622,23.622c0,13.037 -10.584,23.622 -23.622,23.622c-13.037,-0 -23.622,-10.585 -23.622,-23.622c0,-13.038 10.585,-23.622 23.622,-23.622Zm0,8.127c8.552,0 15.494,6.943 15.494,15.495c0,8.551 -6.942,15.494 -15.494,15.494c-8.551,-0 -15.494,-6.943 -15.494,-15.494c-0,-8.552 6.943,-15.495 15.494,-15.495Z" style="fill:#0086cb;"/><circle cx="1358.27" cy="366.142" r="23.622" style="fill:#d6b656;"/><path d="M1358.27,342.52c13.037,-0 23.622,10.584 23.622,23.622c-0,13.037 -10.585,23.622 -23.622,23.622c-13.038,-0 -23.622,-10.585 -23.622,-23.622c-0,-13.038 10.584,-23.622 23.622,-23.622Zm-0,8.127c8.551,0 15.494,6.943 15.494,15.495c-0,8.551 -6.943,15.494 -15.494,15.494c-8.552,-0 -15.495,-6.943 -15.495,-15.494c0,-8.552 6.943,-15.495 15.495,-15.495Z" style="fill:#0086cb;"/><circle cx="1358.27" cy="602.362" r="23.622" style="fill:#d6b656;"/><path d="M1358.27,578.74c13.037,0 23.622,10.585 23.622,23.622c-0,13.038 -10.585,23.622 -23.622,23.622c-13.038,0 -23.622,-10.584 -23.622,-23.622c-0,-13.037 10.584,-23.622 23.622,-23.622Zm-0,8.128c8.551,-0 15.494,6.943 15.494,15.494c-0,8.552 -6.943,15.494 -15.494,15.494c-8.552,0 -15.495,-6.942 -15.495,-15.494c0,-8.551 6.943,-15.494 15.495,-15.494Z" style="fill:#0086cb;"/><g transform="matrix(0.75,0,0,0.75,234.927,414.064)"><text x="0px" y="31.814px" style="font-family:'Arial-BoldMT', 'Arial', sans-serif;font-weight:700;font-size:44.444px;fill:#ea6b66;">00 = -3</text><text x="0px" y="77.713px" style="font-family:'Arial-BoldMT', 'Arial', sans-serif;font-weight:700;font-size:44.444px;fill:#ea6b66;">01 = -1</text><text x="0px" y="123.611px" style="font-family:'Arial-BoldMT', 'Arial', sans-serif;font-weight:700;font-size:44.444px;fill:#ea6b66;">1<tspan x="22.266px 46.984px " y="123.611px 123.611px ">1 </tspan>=  1</text><text x="0px" y="169.51px" style="font-family:'Arial-BoldMT', 'Arial', sans-serif;font-weight:700;font-size:44.444px;fill:#ea6b66;">10 =  3</text></g><g transform="matrix(0.75,0,0,0.75,234.927,28.1307)"><text x="0px" y="31.814px" style="font-family:'Arial-BoldMT', 'Arial', sans-serif;font-weight:700;font-size:44.444px;fill:#ea6b66;">b3b2</text><text x="103.733px" y="31.814px" style="font-family:'Arial-BoldMT', 'Arial', sans-serif;font-weight:700;font-size:44.444px;fill:#82b366;">b1b0</text></g><g transform="matrix(0.75,0,0,0.75,1653.19,414.064)"><text x="0px" y="31.814px" style="font-family:'Arial-BoldMT', 'Arial', sans-serif;font-weight:700;font-size:44.444px;fill:#82b366;">00 =  3</text><text x="0px" y="77.713px" style="font-family:'Arial-BoldMT', 'Arial', sans-serif;font-weight:700;font-size:44.444px;fill:#82b366;">01 =  1</text><text x="0px" y="123.611px" style="font-family:'Arial-BoldMT', 'Arial', sans-serif;font-weight:700;font-size:44.444px;fill:#82b366;">1<tspan x="22.266px 46.984px " y="123.611px 123.611px ">1 </tspan>= -1</text><text x="0px" y="169.51px" style="font-family:'Arial-BoldMT', 'Arial', sans-serif;font-weight:700;font-size:44.444px;fill:#82b366;">10 = -3</text></g><path d="M767.274,25.122l-0,921.26" style="fill:none;stroke:#d6b656;stroke-width:6.25px;stroke-dasharray:12.5,12.5,0,0;"/><path d="M1253.25,25.122l0,921.26" style="fill:none;stroke:#d6b656;stroke-width:6.25px;stroke-dasharray:12.5,12.5,0,0;"/><path d="M1003.94,25.122l0,921.26" style="fill:none;stroke:#d6b656;stroke-width:6.25px;stroke-dasharray:12.5,12.5,0,0;"/><path d="M543.307,248.031l921.26,0" style="fill:none;stroke:#d6b656;stroke-width:6.25px;stroke-dasharray:12.5,12.5,0,0;"/><path d="M543.307,720.688l921.26,-0" style="fill:none;stroke:#d6b656;stroke-width:6.25px;stroke-dasharray:12.5,12.5,0,0;"/><path d="M543.307,484.252l921.26,-0" style="fill:none;stroke:#d6b656;stroke-width:6.25px;stroke-dasharray:12.5,12.5,0,0;"/></svg>