<?xml version="1.0" encoding="UTF-8" standalone="no"?><!DOCTYPE svg PUBLIC "-//W3C//DTD SVG 1.1//EN" "http://www.w3.org/Graphics/SVG/1.1/DTD/svg11.dtd"><svg width="100%" height="100%" viewBox="0 0 2335 933" version="1.1" xmlns="http://www.w3.org/2000/svg" xmlns:xlink="http://www.w3.org/1999/xlink" xml:space="preserve" xmlns:serif="http://www.serif.com/" style="fill-rule:evenodd;clip-rule:evenodd;stroke-miterlimit:10;"><g id="Layer-1" serif:id="Layer 1"><rect x="426.547" y="5.259" width="1544.1" height="921.8" style="fill:#fcfbea;stroke:#1d1d1b;stroke-width:1.04px;"/><rect x="626.359" y="88.551" width="1307.72" height="809.25" style="fill:none;stroke:#ea6b66;stroke-width:4.17px;"/><rect x="5.234" y="5.234" width="360.554" height="921.825" style="fill:#fbdfeb;stroke:#1d1d1b;stroke-width:1.04px;"/><rect x="46.801" y="86.901" width="278.479" height="670.887" style="fill:#f1f1f2;stroke:#1d1d1b;stroke-width:1.04px;"/><rect x="1170.85" y="111.588" width="535.55" height="462.096" style="fill:#f1f1f2;stroke:#1d1d1b;stroke-width:1.04px;"/><rect x="710.618" y="618.084" width="178.067" height="102.529" style="fill:#fff;stroke:#1d1d1b;stroke-width:4.17px;"/><rect x="710.613" y="324.218" width="178.067" height="102.533" style="fill:#fff;stroke:#1d1d1b;stroke-width:4.17px;"/><rect x="710.618" y="765.013" width="178.067" height="102.533" style="fill:#fff;stroke:#1d1d1b;stroke-width:4.17px;"/><rect x="710.613" y="471.155" width="178.067" height="102.529" style="fill:#fff;stroke:#1d1d1b;stroke-width:4.17px;"/><path d="M888.681,370.374l259.742,0" style="fill:none;fill-rule:nonzero;stroke:#82b467;stroke-width:3.13px;"/><path d="M1143.87,385.955l26.984,-15.579l-26.984,-15.584l0,31.163Z" style="fill:#82b467;fill-rule:nonzero;"/><path d="M888.681,522.417l259.742,-0" style="fill:none;fill-rule:nonzero;stroke:#82b467;stroke-width:3.13px;"/><path d="M1143.87,537.999l26.984,-15.579l-26.984,-15.583l0,31.162Z" style="fill:#82b467;fill-rule:nonzero;"/><path d="M1799.33,669.349l-888.225,-0" style="fill:none;fill-rule:nonzero;stroke:#82b467;stroke-width:3.13px;"/><path d="M915.665,653.769l-26.984,15.579l26.984,15.583l-0,-31.162Z" style="fill:#82b467;fill-rule:nonzero;"/><path d="M1706.4,370.374l92.933,0" style="fill:none;fill-rule:nonzero;stroke:#82b467;stroke-width:3.13px;"/><path d="M1799.33,669.349l-0,-298.975" style="fill:none;fill-rule:nonzero;stroke:#82b467;stroke-width:3.13px;"/><path d="M1706.4,227.536l182.171,-0" style="fill:none;fill-rule:nonzero;stroke:#82b467;stroke-width:3.13px;"/><path d="M1888.57,816.279l0,-588.742" style="fill:none;fill-rule:nonzero;stroke:#82b467;stroke-width:3.13px;"/><path d="M1888.57,816.279l-977.462,-0" style="fill:none;fill-rule:nonzero;stroke:#82b467;stroke-width:3.13px;"/><path d="M915.665,800.698l-26.984,15.58l26.984,15.583l-0,-31.163Z" style="fill:#82b467;fill-rule:nonzero;"/><rect x="469.268" y="174.951" width="73.1" height="692.596" style="fill:#fff;stroke:#1d1d1b;stroke-width:4.17px;"/><path d="M542.368,367.817l4.166,-0" style="fill:none;fill-rule:nonzero;stroke:#1186c8;stroke-width:3.13px;"/><path d="M554.623,367.817l125.355,-0" style="fill:none;fill-rule:nonzero;stroke:#1186c8;stroke-width:3.13px;stroke-dasharray:8.09,8.09;"/><path d="M684.022,367.817l4.167,-0" style="fill:none;fill-rule:nonzero;stroke:#1186c8;stroke-width:3.13px;"/><path d="M683.63,383.397l26.983,-15.579l-26.983,-15.583l-0,31.162Z" style="fill:#1186c8;fill-rule:nonzero;"/><path d="M542.368,519.862l4.166,-0" style="fill:none;fill-rule:nonzero;stroke:#1186c8;stroke-width:3.13px;"/><path d="M554.623,519.862l125.355,-0" style="fill:none;fill-rule:nonzero;stroke:#1186c8;stroke-width:3.13px;stroke-dasharray:8.09,8.09;"/><path d="M684.022,519.862l4.167,-0" style="fill:none;fill-rule:nonzero;stroke:#1186c8;stroke-width:3.13px;"/><path d="M683.63,535.442l26.983,-15.579l-26.983,-15.584l-0,31.163Z" style="fill:#1186c8;fill-rule:nonzero;"/><path d="M710.613,816.279l-4.167,-0" style="fill:none;fill-rule:nonzero;stroke:#1186c8;stroke-width:3.13px;"/><path d="M698.359,816.279l-125.354,-0" style="fill:none;fill-rule:nonzero;stroke:#1186c8;stroke-width:3.13px;stroke-dasharray:8.09,8.09;"/><path d="M568.959,816.279l-4.167,-0" style="fill:none;fill-rule:nonzero;stroke:#1186c8;stroke-width:3.13px;"/><path d="M569.351,800.698l-26.983,15.58l26.983,15.583l0,-31.163Z" style="fill:#1186c8;fill-rule:nonzero;"/><path d="M710.613,664.236l-4.167,0" style="fill:none;fill-rule:nonzero;stroke:#1186c8;stroke-width:3.13px;"/><path d="M698.359,664.236l-125.354,0" style="fill:none;fill-rule:nonzero;stroke:#1186c8;stroke-width:3.13px;stroke-dasharray:8.09,8.09;"/><path d="M568.959,664.236l-4.167,0" style="fill:none;fill-rule:nonzero;stroke:#1186c8;stroke-width:3.13px;"/><path d="M569.351,648.654l-26.983,15.579l26.983,15.583l0,-31.162Z" style="fill:#1186c8;fill-rule:nonzero;"/><path d="M542.368,227.536l4.166,-0" style="fill:none;fill-rule:nonzero;stroke:#1186c8;stroke-width:3.13px;"/><path d="M554.953,227.536l585.096,-0" style="fill:none;fill-rule:nonzero;stroke:#1186c8;stroke-width:3.13px;stroke-dasharray:8.42,8.42;"/><path d="M1144.26,227.536l4.166,-0" style="fill:none;fill-rule:nonzero;stroke:#1186c8;stroke-width:3.13px;"/><path d="M1143.87,243.116l26.984,-15.579l-26.984,-15.584l0,31.163Z" style="fill:#1186c8;fill-rule:nonzero;"/><rect x="71.909" y="174.951" width="229.112" height="119.546" style="fill:#fff;stroke:#1d1d1b;stroke-width:4.17px;"/><rect x="71.588" y="333.005" width="229.112" height="69.621" style="fill:#fff;stroke:#1d1d1b;stroke-width:4.17px;"/><path d="M325.28,227.534l121.563,-0" style="fill:none;fill-rule:nonzero;stroke:#231f20;stroke-width:3.13px;"/><path d="M442.284,243.114l26.984,-15.579l-26.984,-15.584l0,31.163Z" style="fill:#231f20;fill-rule:nonzero;"/><rect x="71.588" y="441.143" width="229.112" height="69.617" style="fill:#fff;stroke:#1d1d1b;stroke-width:4.17px;"/><rect x="71.909" y="549.268" width="229.112" height="69.621" style="fill:#fff;stroke:#1d1d1b;stroke-width:4.17px;"/><rect x="71.909" y="657.401" width="229.112" height="69.617" style="fill:#fff;stroke:#1d1d1b;stroke-width:4.17px;"/><g><rect x="1999.81" y="5.259" width="335.129" height="115.821" style="fill:#f1f1f2;"/><text x="2113.68px" y="99.02px" style="font-family:'ArialMT', 'Arial', sans-serif;font-size:29.167px;fill:#1d1d1b;">AXI4-Stream</text><text x="2113.68px" y="50.662px" style="font-family:'ArialMT', 'Arial', sans-serif;font-size:29.167px;fill:#1d1d1b;">AXI4 / <tspan x="2199.62px 2219.07px " y="50.662px 50.662px ">AX</tspan>I4-Lite</text><path d="M2015.71,35.611l73.1,-0" style="fill:none;fill-rule:nonzero;stroke:#1186c8;stroke-width:3.13px;stroke-dasharray:8.33,8.33;"/><path d="M2015.71,87.806l73.1,0" style="fill:none;fill-rule:nonzero;stroke:#82b467;stroke-width:3.13px;"/></g><g transform="matrix(4.16667,0,0,4.16667,-35.199,-8.03652)"><text x="293.492px" y="58.675px" style="font-family:'ArialMT', 'Arial', sans-serif;font-size:7px;fill:#1d1d1b;">S_AXI</text><text x="293.492px" y="93.285px" style="font-family:'ArialMT', 'Arial', sans-serif;font-size:7px;fill:#1d1d1b;">S_AXIS_CTRL</text></g><text x="1187.68px" y="531.757px" style="font-family:'ArialMT', 'Arial', sans-serif;font-size:29.167px;fill:#1d1d1b;">S_AXIS_DIN</text><g transform="matrix(4.16667,0,0,4.16667,-35.199,-8.03652)"><text x="364.787px" y="58.675px" style="font-family:'ArialMT', 'Arial', sans-serif;font-size:7px;fill:#1d1d1b;">M_AXIS_DOUT</text><text x="357.913px" y="93.285px" style="font-family:'ArialMT', 'Arial', sans-serif;font-size:7px;fill:#1d1d1b;">M_AXIS_ST<tspan x="395.907px 400.057px 404.333px " y="93.285px 93.285px 93.285px ">ATU</tspan>S</text></g><text x="1321.94px" y="159.042px" style="font-family:'Arial-BoldItalicMT', 'Arial', sans-serif;font-weight:700;font-style:italic;font-size:29.167px;fill:#1d1d1b;">SD-FEC Encoder</text><g transform="matrix(4.16667,0,0,4.16667,-65.0761,-47.615)"><text x="193.141px" y="100.551px" style="font-family:'ArialMT', 'Arial', sans-serif;font-size:7px;fill:#1d1d1b;">AXI DMA</text><text x="200.537px" y="107.551px" style="font-family:'ArialMT', 'Arial', sans-serif;font-size:7px;fill:#1d1d1b;">(ctrl)</text></g><g transform="matrix(4.16667,0,0,4.16667,-65.0761,99.3225)"><text x="193.141px" y="100.551px" style="font-family:'ArialMT', 'Arial', sans-serif;font-size:7px;fill:#1d1d1b;">AXI DMA</text><text x="198.39px" y="107.551px" style="font-family:'ArialMT', 'Arial', sans-serif;font-size:7px;fill:#1d1d1b;">(data)</text></g><g transform="matrix(4.16667,0,0,4.16667,-65.0719,246.252)"><text x="193.141px" y="100.551px" style="font-family:'ArialMT', 'Arial', sans-serif;font-size:7px;fill:#1d1d1b;">AXI DMA</text><text x="200.537px" y="107.551px" style="font-family:'ArialMT', 'Arial', sans-serif;font-size:7px;fill:#1d1d1b;">(ctrl)</text></g><g transform="matrix(4.16667,0,0,4.16667,-65.0719,393.181)"><text x="193.141px" y="100.551px" style="font-family:'ArialMT', 'Arial', sans-serif;font-size:7px;fill:#1d1d1b;">AXI DMA</text><text x="198.39px" y="107.551px" style="font-family:'ArialMT', 'Arial', sans-serif;font-size:7px;fill:#1d1d1b;">(data)</text></g><g transform="matrix(0,-1,1,0,-27.1625,-43.2355)"><text x="-617.831px" y="544.268px" style="font-family:'ArialMT', 'Arial', sans-serif;font-size:29.167px;fill:#1d1d1b;">AXI Bus</text></g><g transform="matrix(4.16667,0,0,4.16667,-35.199,-8.03652)"><text x="40.804px" y="56.537px" style="font-family:'ArialMT', 'Arial', sans-serif;font-size:7px;fill:#1d1d1b;">SD-FEC</text><text x="35.547px" y="64.937px" style="font-family:'ArialMT', 'Arial', sans-serif;font-size:7px;fill:#1d1d1b;">Initialisation</text></g><text x="99.074px" y="376.117px" style="font-family:'ArialMT', 'Arial', sans-serif;font-size:29.167px;fill:#1d1d1b;">Control Buﬀer</text><text x="89.909px" y="484.247px" style="font-family:'ArialMT', 'Arial', sans-serif;font-size:29.167px;fill:#1d1d1b;">T<tspan x="106.642px 116.355px " y="484.247px 484.247px ">ra</tspan>nsmit Buﬀer</text><text x="105.064px" y="592.379px" style="font-family:'ArialMT', 'Arial', sans-serif;font-size:29.167px;fill:#1d1d1b;">Status Buﬀer</text><text x="93.719px" y="700.509px" style="font-family:'ArialMT', 'Arial', sans-serif;font-size:29.167px;fill:#1d1d1b;">Receive Buﬀer</text><text x="113.873px" y="133.801px" style="font-family:'Arial-ItalicMT', 'Arial', sans-serif;font-style:italic;font-size:29.167px;fill:#1d1d1b;">JupyterLab</text><text x="1622.32px" y="42.466px" style="font-family:'Arial-BoldItalicMT', 'Arial', sans-serif;font-weight:700;font-style:italic;font-size:29.167px;fill:#1d1d1b;">Programmable Logic</text><text x="659.106px" y="128.145px" style="font-family:'Arial-BoldItalicMT', 'Arial', sans-serif;font-weight:700;font-style:italic;font-size:29.167px;fill:#ea6b66;">Encoder Hierarchy</text><text x="45.364px" y="42.466px" style="font-family:'Arial-BoldItalicMT', 'Arial', sans-serif;font-weight:700;font-style:italic;font-size:29.167px;fill:#1d1d1b;">Processing System</text><text x="990.032px" y="338.816px" style="font-family:'ArialMT', 'Arial', sans-serif;font-size:29.167px;fill:#1d1d1b;">uint32</text><text x="990.033px" y="637.638px" style="font-family:'ArialMT', 'Arial', sans-serif;font-size:29.167px;fill:#1d1d1b;">uint32</text><text x="998.143px" y="785.193px" style="font-family:'ArialMT', 'Arial', sans-serif;font-size:29.167px;fill:#1d1d1b;">uint8</text><text x="999.248px" y="491.039px" style="font-family:'ArialMT', 'Arial', sans-serif;font-size:29.167px;fill:#1d1d1b;">uint8</text><path d="M469.268,274.877l-121.562,-0" style="fill:none;fill-rule:nonzero;stroke:#231f20;stroke-width:3.13px;"/><path d="M352.263,259.294l-26.983,15.579l26.983,15.584l0,-31.163Z" style="fill:#231f20;fill-rule:nonzero;"/><path d="M1013.23,386.909l33.071,-33.071" style="fill:none;fill-rule:nonzero;stroke:#82b467;stroke-width:4.17px;"/><path d="M1013.23,538.963l33.071,-33.07" style="fill:none;fill-rule:nonzero;stroke:#82b467;stroke-width:4.17px;"/><path d="M1013.23,685.711l33.071,-33.071" style="fill:none;fill-rule:nonzero;stroke:#82b467;stroke-width:4.17px;"/><path d="M1013.23,833.267l33.071,-33.071" style="fill:none;fill-rule:nonzero;stroke:#82b467;stroke-width:4.17px;"/></g></svg>